<?xml version="1.0" encoding="utf-8"?>
<!-- Generator: Adobe Illustrator 24.3.0, SVG Export Plug-In . SVG Version: 6.00 Build 0)  -->
<svg version="1.1" id="Capa_1" xmlns="http://www.w3.org/2000/svg" xmlns:xlink="http://www.w3.org/1999/xlink" x="0px" y="0px"
	 viewBox="0 0 512 512" style="enable-background:new 0 0 512 512;" xml:space="preserve">
<style type="text/css">
	.st0{fill:#0A3F78;}
</style>
<g>
	<path class="st0" d="M494.5,48.4H17.5C7.9,48.4,0,56.3,0,66v323.7c0,9.7,7.9,17.5,17.5,17.5h98.6l2,9.4c2.2,10,10.3,17.6,20.1,19.4
		c-4,7.3-6.4,15.6-6.4,24.5c0,27.8,22.7,50.5,50.5,50.5s50.5-22.7,50.5-50.5c0-8.7-2.2-16.9-6.1-24.1h41.9
		c-3.9,7.2-6.1,15.4-6.1,24.1c0,27.8,22.7,50.5,50.5,50.5s50.5-22.7,50.5-50.5c0-8.8-2.3-17.1-6.2-24.3c10.6-1.1,19.7-9,22-19.6
		l54.6-254H497v227c0,1.4-1.1,2.5-2.5,2.5h-81.9c-4.1,0-7.5,3.4-7.5,7.5s3.4,7.5,7.5,7.5h81.9c9.7,0,17.5-7.9,17.5-17.5V66
		C512,56.3,504.1,48.5,494.5,48.4L494.5,48.4z M182.4,496c-19.6,0-35.5-15.9-35.5-35.5s15.9-35.5,35.5-35.5s35.5,15.9,35.5,35.5
		C217.9,480.1,202,496,182.4,496L182.4,496z M313,496c-19.6,0-35.5-15.9-35.5-35.5S293.5,425,313,425s35.5,15.9,35.5,35.5
		C348.5,480.1,332.6,496,313,496L313,496z M475.6,147.6c5-4.6,8.2-11.2,8.2-18.5c0-13.8-11.2-25-25-25h-23.6
		c-23.1,0-43.5,16.4-48.3,39l-1,4.5h-70.9c-4.1,0-7.5,3.4-7.5,7.5s3.4,7.5,7.5,7.5h67.7l-7.6,35.5H102.2c-7.6,0-14.7,3.4-19.5,9.3
		c-4.8,5.9-6.6,13.6-5,21l18.5,86.2c0.9,4.1,4.9,6.6,8.9,5.8c4.1-0.9,6.6-4.9,5.8-8.9l-18.5-86.2c-0.6-3,0.1-6,2-8.4
		c1.9-2.4,4.8-3.7,7.8-3.7h278.9c3.5,0,6.6-2.5,7.3-5.9l13.1-61c3.4-15.7,17.5-27.2,33.6-27.2h23.6c5.5,0,10,4.5,10,10
		s-4.5,10-10,10h-23.6c-6.7,0-12.6,4.8-14,11.3l-56.5,263c-1,4.6-5.1,7.9-9.8,7.9h-9.9c-8.7-7.1-19.8-11.4-31.9-11.4
		s-23.2,4.3-31.9,11.4h-66.9c-8.7-7.1-19.8-11.4-31.9-11.4s-23.2,4.3-31.9,11.4h-7.9c-4.7,0-8.8-3.3-9.8-7.9l-15.4-71.8
		c-0.9-4.1-4.9-6.6-8.9-5.8c-4.1,0.9-6.6,4.9-5.8,8.9l10.2,47.3H17.5c-1.4,0-2.5-1.1-2.5-2.5v-227h265.1c4.1,0,7.5-3.4,7.5-7.5
		s-3.4-7.5-7.5-7.5H15V66c0-1.4,1.1-2.5,2.5-2.5h476.9c1.4,0,2.5,1.1,2.5,2.5v81.6H475.6z"/>
	<circle class="st0" cx="55.5" cy="105.3" r="14.6"/>
	<circle class="st0" cx="100.1" cy="105.3" r="14.7"/>
	<circle class="st0" cx="144.6" cy="105.3" r="14.6"/>
	<path class="st0" d="M269.8,358.6h-44.2c-2.1,0-4.1,0.9-5.5,2.4s-2.1,3.6-2,5.7l2.3,27.7c0.3,3.9,3.6,6.9,7.5,6.9h39.6
		c3.9,0,7.2-3,7.5-6.9l2.3-27.7c0.2-2.1-0.5-4.2-2-5.7C273.9,359.5,271.9,358.6,269.8,358.6z M260.6,386.3h-25.8l-1-12.6h27.9
		L260.6,386.3z"/>
	<path class="st0" d="M122.5,269.9c0.7,3.5,3.8,5.9,7.3,5.9h52.6c4.3,0.1,7.9-3.9,7.5-8.1l-2.3-27.7c-0.3-3.9-3.6-6.9-7.5-6.9h-56.2
		c-4.6-0.1-8.4,4.6-7.3,9.1L122.5,269.9z M173.2,248.2l1,12.6h-38.4l-2.7-12.6H173.2z"/>
	<path class="st0" d="M150.8,358.6c-2.3,0-4.4,1-5.8,2.8c-1.4,1.8-2,4.1-1.5,6.3l5.9,27.7c0.7,3.5,3.8,5.9,7.3,5.9h36
		c2.1,0,4.1-0.9,5.5-2.4s2.1-3.6,2-5.7l-2.3-27.7c-0.3-3.9-3.6-6.9-7.5-6.9L150.8,358.6z M162.8,386.3l-2.7-12.6h23.4l1,12.6H162.8z
		"/>
	<path class="st0" d="M137.4,295.9c-2.3,0-4.4,1-5.8,2.8c-1.4,1.8-2,4.1-1.5,6.3l5.9,27.7c0.7,3.5,3.8,5.9,7.3,5.9h44.3
		c2.1,0,4.1-0.9,5.5-2.4s2.1-3.6,2-5.7l-2.3-27.7c-0.3-3.9-3.6-6.9-7.5-6.9L137.4,295.9z M149.4,323.6l-2.7-12.6h31.7l1,12.6H149.4z
		"/>
	<path class="st0" d="M210.1,269c0.3,3.9,3.6,6.9,7.5,6.9h60.3c3.9,0,7.2-3,7.5-6.9l2.3-27.7c0.4-4.2-3.2-8.2-7.5-8.1h-64.8
		c-4.3-0.1-7.9,3.9-7.5,8.1L210.1,269z M272,248.2l-1,12.6h-46.4l-1-12.6H272z"/>
	<path class="st0" d="M307.9,338.6h46.2c3.5,0,6.6-2.5,7.3-5.9l5.9-27.7c0.5-2.2-0.1-4.5-1.5-6.3c-1.4-1.8-3.6-2.8-5.8-2.8h-49.9
		c-3.9,0-7.2,3-7.5,6.9l-2.3,27.7c-0.2,2.1,0.5,4.2,2,5.7C303.8,337.7,305.8,338.6,307.9,338.6L307.9,338.6z M317.1,310.9h33.7
		l-2.7,12.6h-32L317.1,310.9z"/>
	<path class="st0" d="M313,275.9h54.5c3.5,0,6.6-2.5,7.3-5.9l5.9-27.7c1.1-4.5-2.7-9.2-7.3-9.1h-58.2c-3.9,0-7.2,3-7.5,6.9
		l-2.3,27.7C305.1,272,308.8,276,313,275.9L313,275.9z M322.2,248.2h42l-2.7,12.6h-40.3L322.2,248.2z"/>
	<path class="st0" d="M275,295.9h-54.5c-2.1,0-4.1,0.9-5.5,2.4s-2.1,3.6-2,5.7l2.3,27.7c0.3,3.9,3.6,6.9,7.5,6.9h50
		c3.9,0,7.2-3,7.5-6.9l2.3-27.7c0.2-2.1-0.5-4.2-2-5.7S277.1,295.9,275,295.9z M265.8,323.6h-36.1l-1-12.6h38.2L265.8,323.6z"/>
	<path class="st0" d="M302.7,401.3h37.9c3.5,0,6.6-2.5,7.3-5.9l5.9-27.7c0.5-2.2-0.1-4.5-1.5-6.3c-1.4-1.8-3.6-2.8-5.8-2.8H305
		c-3.9,0-7.2,3-7.5,6.9l-2.3,27.7c-0.2,2.1,0.5,4.2,2,5.7S300.6,401.3,302.7,401.3L302.7,401.3z M311.9,373.7h25.4l-2.7,12.6h-23.7
		L311.9,373.7z"/>
	<path class="st0" d="M182.4,447.6c-7.1,0-12.9,5.8-12.9,12.9c0,7.1,5.8,12.9,12.9,12.9s12.9-5.8,12.9-12.9
		C195.3,453.4,189.5,447.6,182.4,447.6z"/>
	<path class="st0" d="M313,447.6c-7.1,0-12.9,5.8-12.9,12.9c0,7.1,5.8,12.9,12.9,12.9s12.9-5.8,12.9-12.9
		C325.9,453.4,320.2,447.6,313,447.6z"/>
</g>
</svg>
