<?xml version="1.0" encoding="utf-8"?>
<!-- Generator: Adobe Illustrator 24.3.0, SVG Export Plug-In . SVG Version: 6.00 Build 0)  -->
<svg version="1.1" id="Layer_1" xmlns="http://www.w3.org/2000/svg" xmlns:xlink="http://www.w3.org/1999/xlink" x="0px" y="0px"
	 viewBox="0 0 512 512" style="enable-background:new 0 0 512 512;" xml:space="preserve">
<style type="text/css">
	.st0{fill:#0A3F78;}
</style>
<path class="st0" d="M471.1,114.4c-1.2-4-5.3-6.2-9.3-5.1c-4,1.2-6.2,5.3-5.1,9.3c1.6,5.6,2.5,11.4,2.5,17.3c0,10.9-2.9,21.6-8.3,31
	c-5.3,9.1-12.9,16.8-22,22.2l-3.1,1.9c-2.3,1.4-3.7,3.8-3.7,6.4v9.5h-17.5v-30.4c8-2.9,13.8-10.6,13.8-19.6v-16.3
	c0-11.5-9.4-20.9-20.9-20.9h-0.8c-11.5,0-20.9,9.4-20.9,20.9v16.3c0,9,5.8,16.7,13.8,19.6v30.4h-17.5v-9.5c0-2.6-1.4-5.1-3.7-6.4
	l-3.1-1.9c-9.1-5.4-16.7-13.1-22-22.2c-5.4-9.4-8.3-20.1-8.3-31c0-34.1,27.8-61.9,62.1-61.9c16.2,0,31.6,6.2,43.3,17.6
	c3,2.9,7.7,2.8,10.6-0.2c2.9-3,2.8-7.7-0.2-10.6C436.4,66.8,417.3,59,397.1,59c-42.5,0-77,34.5-77,76.8c0,13.5,3.6,26.9,10.4,38.5
	c6.5,11.1,15.7,20.5,26.7,27.2v6.4c-4,1.9-6.7,6-6.7,10.7v34.2c0,6.6,5.4,12,11.9,12h11.1v10.5c0,7.2,5.8,13,13,13h21.2
	c7.2,0,13-5.8,13-13v-10.5h11.1c6.6,0,12-5.4,12-12v-34.2c0-4.7-2.8-8.8-6.7-10.7v-6.4c11-6.7,20.2-16.1,26.7-27.2
	c6.8-11.6,10.4-25,10.4-38.5C474.2,128.6,473.1,121.3,471.1,114.4z M390.8,140.4c0-3.3,2.7-5.9,5.9-5.9h0.8c3.3,0,5.9,2.7,5.9,5.9
	v16.3c0,3.3-2.7,5.9-5.9,5.9h-0.8c-3.3,0-5.9-2.7-5.9-5.9V140.4z M405.8,273.5h-17.3v-8.6h17.3V273.5z M428.8,249.9h-63.4v-28.2
	h63.4V249.9z"/>
<path class="st0" d="M397.1,49.9c4.1,0,7.5-3.4,7.5-7.5V30c0-4.1-3.3-7.5-7.5-7.5s-7.5,3.3-7.5,7.5v12.4
	C389.6,46.5,393,49.9,397.1,49.9z"/>
<path class="st0" d="M351.4,53.8c1.2,2.8,4,4.4,6.8,4.4c1,0,2.1-0.2,3.1-0.7c3.8-1.7,5.5-6.1,3.8-9.9L360,36.4
	c-1.7-3.8-6.1-5.5-9.9-3.8c-3.8,1.7-5.5,6.1-3.8,9.9L351.4,53.8z"/>
<path class="st0" d="M311.9,71.5l9.3,8.3c1.4,1.3,3.2,1.9,5,1.9c2.1,0,4.1-0.8,5.6-2.5c2.8-3.1,2.5-7.8-0.6-10.6l-9.3-8.3
	c-3.1-2.8-7.8-2.5-10.6,0.6C308.6,64,308.9,68.8,311.9,71.5z"/>
<path class="st0" d="M292.4,112l11.8,3.8c0.8,0.2,1.5,0.4,2.3,0.4c3.2,0,6.1-2,7.1-5.2c1.3-3.9-0.9-8.2-4.8-9.4l-11.8-3.8
	c-3.9-1.3-8.2,0.9-9.4,4.8C286.3,106.5,288.4,110.8,292.4,112z"/>
<path class="st0" d="M290.2,157c0.3,0,0.5,0,0.8,0l12.4-1.3c4.1-0.4,7.1-4.1,6.6-8.2c-0.4-4.1-4.1-7.1-8.2-6.6l-12.4,1.3
	c-4.1,0.4-7.1,4.1-6.6,8.2C283.2,154.1,286.5,157,290.2,157z"/>
<path class="st0" d="M300.7,185.6c-3.6,2.1-4.8,6.7-2.7,10.2c1.4,2.4,3.9,3.7,6.5,3.7c1.3,0,2.6-0.3,3.8-1l10.7-6.3
	c3.6-2.1,4.8-6.7,2.7-10.2c-2.1-3.6-6.7-4.8-10.2-2.7L300.7,185.6z"/>
<path class="st0" d="M432.9,57.6c1,0.4,2,0.7,3.1,0.7c2.9,0,5.6-1.6,6.8-4.4l5.1-11.3c1.7-3.8,0-8.2-3.8-9.9c-3.8-1.7-8.2,0-9.9,3.8
	l-5.1,11.3C427.5,51.5,429.2,55.9,432.9,57.6z"/>
<path class="st0" d="M468.1,81.7c1.8,0,3.6-0.6,5-1.9l9.3-8.3c3.1-2.8,3.3-7.5,0.6-10.6c-2.8-3.1-7.5-3.3-10.6-0.6l-9.3,8.3
	c-3.1,2.8-3.3,7.5-0.6,10.6C464,80.9,466,81.7,468.1,81.7z"/>
<path class="st0" d="M480.6,111c1,3.2,4,5.2,7.1,5.2c0.8,0,1.5-0.1,2.3-0.4l11.8-3.8c3.9-1.3,6.1-5.5,4.8-9.4
	c-1.3-3.9-5.5-6.1-9.4-4.8l-11.8,3.8C481.5,102.8,479.4,107,480.6,111z"/>
<path class="st0" d="M504.8,142.1l-12.4-1.3c-4.1-0.5-7.8,2.5-8.3,6.6c-0.4,4.1,2.5,7.8,6.6,8.3l12.4,1.3c0.3,0,0.5,0,0.8,0
	c3.8,0,7-2.8,7.4-6.7C511.9,146.2,508.9,142.5,504.8,142.1z"/>
<path class="st0" d="M493.6,185.6l-10.7-6.3c-3.6-2.1-8.2-0.9-10.2,2.7c-2.1,3.6-0.9,8.2,2.7,10.2l10.7,6.3c1.2,0.7,2.5,1,3.8,1
	c2.6,0,5.1-1.3,6.5-3.7C498.4,192.2,497.1,187.7,493.6,185.6z"/>
<path class="st0" d="M83.9,195.1h75.9c4.1,0,7.5-3.4,7.5-7.5c0-4.1-3.4-7.5-7.5-7.5H83.9c-4.1,0-7.5,3.3-7.5,7.5
	C76.4,191.7,79.8,195.1,83.9,195.1z"/>
<path class="st0" d="M48.9,383.4h145.9c4.1,0,7.5-3.3,7.5-7.5c0-4.1-3.3-7.5-7.5-7.5H48.9c-4.1,0-7.5,3.4-7.5,7.5
	C41.4,380.1,44.8,383.4,48.9,383.4z"/>
<path class="st0" d="M293.4,303.6c0-24.5-19.9-44.4-44.4-44.4c-24.5,0-44.4,19.9-44.4,44.4s19.9,44.4,44.4,44.4
	C273.5,348,293.4,328.1,293.4,303.6z M249.1,274.2c15.7,0,28.5,12.4,29.4,27.9c-1.2,0.1-2.4,0.2-3.6,0.2
	c-15.7,0-28.5-12.4-29.3-27.9C246.6,274.3,247.8,274.2,249.1,274.2z M219.7,303.6c0-9.4,4.5-17.8,11.4-23.2
	c3.6,20.9,21.8,36.9,43.7,36.9c0.1,0,0.2,0,0.3,0c-4.9,9.4-14.7,15.8-26,15.8C232.9,333,219.7,319.8,219.7,303.6z"/>
<path class="st0" d="M430.2,421.8l-37.9-20.7c-5-2.7-13.2-4.8-18.9-4.8H243.2v-23.8c1.9,0.1,3.9,0.2,5.8,0.2
	c44.6,0,86-24,108.3-62.7c2.2-3.9,2.2-8.8,0-12.7c-22.2-38.7-63.7-62.7-108.3-62.7c-2,0-3.9,0.1-5.8,0.2v-93
	c0-6.9-5.6-12.5-12.5-12.5H93.3c-4.1,0-7.5,3.4-7.5,7.5c0,4.1,3.3,7.5,7.5,7.5h134.9v92.1c-5.4,0.9-10.6,2.2-15.8,3.8v-6.5
	c0-6.9-5.6-12.5-12.5-12.5H43.7c-6.9,0-12.5,5.6-12.5,12.5v104.3c0,6.9,5.6,12.5,12.5,12.5h134.1c15,10.4,32.2,17.5,50.4,20.6v25.4
	h-90c-5.7,0-10.7,3.1-13.4,7.7H48.9c-4.1,0-7.5,3.4-7.5,7.5c0,4.1,3.4,7.5,7.5,7.5h73.7v20.5H48.9c-4.1,0-7.5,3.3-7.5,7.5
	c0,4.1,3.4,7.5,7.5,7.5h73.8c0.9,7.8,7.5,13.8,15.5,13.8h90v28.7H15.5V144.2h41.9c4.1,0,7.5-3.3,7.5-7.5c0-4.1-3.3-7.5-7.5-7.5H13
	c-6.9,0-12.5,5.6-12.5,12.5v357.8c0,6.9,5.6,12.5,12.5,12.5h217.8c6.9,0,12.5-5.6,12.5-12.5v-31.2h130.2c5.7,0,13.9-2.1,18.9-4.8
	l37.9-20.7c4.4-2.4,6.9-6.2,6.9-10.5C437.1,428,434.6,424.1,430.2,421.8z M169.9,453.2h-31.7c-0.4,0-0.7-0.3-0.7-0.7v-40.7
	c0-0.3,0.3-0.7,0.7-0.7h31.7V453.2z M46.2,335.3V236h151.3v9.7c-23.4,10.7-43.5,28.5-56.7,51.5c-2.2,3.9-2.2,8.8,0,12.7
	c5.4,9.4,11.9,17.8,19.3,25.3H46.2z M154.5,303.6c19.7-33.4,55.8-54.1,94.6-54.1c38.8,0,74.9,20.7,94.6,54.1
	c-19.7,33.4-55.8,54.1-94.6,54.1C210.3,357.7,174.2,337,154.5,303.6z M362.6,424.8h-30.8c-4.1,0-7.5,3.4-7.5,7.5
	c0,4.1,3.3,7.5,7.5,7.5h30.8v13.5H184.9v-13.5h112c4.1,0,7.5-3.3,7.5-7.5c0-4.1-3.4-7.5-7.5-7.5h-112v-13.5h177.7V424.8z
	 M393.7,445.6l-8.5,4.6c-1.8,1-4.8,1.9-7.6,2.5v-41c2.8,0.6,5.8,1.5,7.6,2.5l8.5,4.6V445.6z M408.7,437.4v-10.4l9.5,5.2L408.7,437.4
	z"/>
</svg>
