<?xml version="1.0" encoding="utf-8"?>
<!-- Generator: Adobe Illustrator 24.3.0, SVG Export Plug-In . SVG Version: 6.00 Build 0)  -->
<svg version="1.1" id="Capa_1" xmlns="http://www.w3.org/2000/svg" xmlns:xlink="http://www.w3.org/1999/xlink" x="0px" y="0px"
	 viewBox="0 0 512 512" style="enable-background:new 0 0 512 512;" xml:space="preserve">
<style type="text/css">
	.st0{fill:#0A3F78;}
</style>
<g>
	<g>
		<path class="st0" d="M348,217.2c-0.1-0.3-0.2-0.5-0.3-0.7c-0.1-0.4-0.3-0.8-0.5-1.2c-0.2-0.3-0.4-0.5-0.6-0.8
			c-0.2-0.3-0.5-0.6-0.7-0.9c-0.2-0.2-0.5-0.4-0.8-0.6c-0.3-0.2-0.5-0.5-0.8-0.7l-83-49.8c-2.6-1.6-5.9-1.6-8.6,0l-83,49.8
			c-0.3,0.2-0.6,0.4-0.9,0.7c-0.3,0.2-0.5,0.4-0.8,0.6c-0.3,0.3-0.5,0.6-0.7,0.9c-0.2,0.2-0.4,0.5-0.6,0.8c-0.2,0.4-0.4,0.8-0.5,1.2
			c-0.1,0.3-0.2,0.5-0.3,0.8c-0.2,0.7-0.3,1.4-0.3,2.2v83c0,2.9,1.5,5.6,4,7.1l83,49.8l0.1,0l0.1,0.1c0.4,0.2,0.9,0.4,1.4,0.6
			c0.2,0.1,0.4,0.2,0.6,0.2c1.4,0.4,2.9,0.4,4.3,0c0.2-0.1,0.4-0.2,0.6-0.2c0.5-0.1,0.9-0.3,1.4-0.6l0.1-0.1l0.1,0l83-49.8
			c2.5-1.5,4-4.2,4-7.1v-83C348.3,218.6,348.2,217.9,348,217.2z M257,179.2l25.4,15.2l-66.9,40.1l-25.4-15.2L257,179.2z
			 M248.6,337.5l-66.4-39.8V234l66.4,39.8V337.5z M257,259.5l-25.4-15.2l66.9-40.1l25.4,15.2L257,259.5z M331.7,297.7l-66.4,39.8
			v-63.7l66.4-39.8V297.7z"/>
	</g>
</g>
<g>
	<g>
		<path class="st0" d="M263.6,15.1c-3-3.7-8.4-4.2-12.1-1.2c-0.4,0.4-0.8,0.7-1.2,1.2l-24.9,33.2l13.3,10l10-13.3v66.4h16.6V45
			l10,13.3l13.3-10L263.6,15.1z"/>
	</g>
</g>
<g>
	<g>
		<path class="st0" d="M275.2,463.4l-10,13.3v-66.4h-16.6v66.4l-10-13.3l-13.3,10l24.9,33.2c2.8,3.7,8,4.4,11.6,1.7
			c0.6-0.5,1.2-1,1.7-1.7l24.9-33.2L275.2,463.4z"/>
	</g>
</g>
<g>
	<g>
		<rect x="248.6" y="128" class="st0" width="16.6" height="16.6"/>
	</g>
</g>
<g>
	<g>
		<rect x="248.6" y="377.1" class="st0" width="16.6" height="16.6"/>
	</g>
</g>
<g>
	<g>
		<path class="st0" d="M107.5,252.6H41.1l13.3-10l-10-13.3l-33.2,24.9c-3.7,2.8-4.4,8-1.7,11.6c0.5,0.6,1,1.2,1.7,1.7l33.2,24.9
			l10-13.3l-13.3-10h66.4V252.6z"/>
	</g>
</g>
<g>
	<g>
		<path class="st0" d="M504.3,255.9c-0.5-0.6-1-1.2-1.7-1.7l-33.2-24.9l-10,13.3l13.3,10h-66.4v16.6h66.4l-13.3,10l10,13.3
			l33.2-24.9C506.3,264.8,507.1,259.5,504.3,255.9z"/>
	</g>
</g>
<g>
	<g>
		<rect x="124.1" y="252.6" class="st0" width="16.6" height="16.6"/>
	</g>
</g>
<g>
	<g>
		<rect x="373.2" y="252.6" class="st0" width="16.6" height="16.6"/>
	</g>
</g>
<g>
	<g>
		<path class="st0" d="M157.2,149.3l-47-47l16.4,2.3l2.3-16.4l-41.1-5.9c-4.5-0.7-8.8,2.5-9.4,7c-0.1,0.8-0.1,1.6,0,2.4l5.9,41.1
			l16.4-2.3l-2.3-16.4l47,47L157.2,149.3z"/>
	</g>
</g>
<g>
	<g>
		<path class="st0" d="M435.4,429.9l-5.9-41.1l-16.5,2.4l2.3,16.4l-47-47l-11.7,11.7l47,47l-16.4-2.4l-2.3,16.4l41.1,5.9
			c0.4,0.1,0.8,0.1,1.2,0.1c4.6,0,8.3-3.7,8.3-8.3C435.5,430.7,435.5,430.3,435.4,429.9z"/>
	</g>
</g>
<g>
	<g>
		
			<rect x="160.6" y="164.5" transform="matrix(0.7071 -0.7071 0.7071 0.7071 -72.7288 170.0476)" class="st0" width="16.6" height="16.6"/>
	</g>
</g>
<g>
	<g>
		
			<rect x="336.7" y="340.6" transform="matrix(0.7071 -0.7071 0.7071 0.7071 -145.6656 346.1506)" class="st0" width="16.6" height="16.6"/>
	</g>
</g>
<g>
	<g>
		<path class="st0" d="M110.2,419.3l47-47l-11.7-11.7l-47,47l2.3-16.4l-16.4-2.3l-5.9,41.1c-0.7,4.5,2.5,8.7,7,9.4
			c0.4,0.1,0.8,0.1,1.2,0.1c0.4,0,0.8,0,1.2-0.1l41.1-5.9l-2.3-16.4L110.2,419.3z"/>
	</g>
</g>
<g>
	<g>
		<path class="st0" d="M433.1,84.8c-1.8-1.9-4.5-2.7-7-2.3l-41.1,5.9l2.3,16.4l16.4-2.3l-47,47l11.7,11.7l47-47l-2.3,16.4l16.4,2.4
			l5.9-41.1C435.8,89.2,434.9,86.6,433.1,84.8z"/>
	</g>
</g>
<g>
	<g>
		
			<rect x="160.6" y="340.6" transform="matrix(0.7071 -0.7071 0.7071 0.7071 -197.2493 221.6312)" class="st0" width="16.6" height="16.6"/>
	</g>
</g>
<g>
	<g>
		
			<rect x="336.7" y="164.5" transform="matrix(0.7071 -0.7071 0.7071 0.7071 -21.1271 294.5667)" class="st0" width="16.6" height="16.6"/>
	</g>
</g>
</svg>
