<?xml version="1.0" encoding="utf-8"?>
<!-- Generator: Adobe Illustrator 24.3.0, SVG Export Plug-In . SVG Version: 6.00 Build 0)  -->
<svg fill="#0A3F78" version="1.1" id="Layer_1" xmlns="http://www.w3.org/2000/svg" xmlns:xlink="http://www.w3.org/1999/xlink" x="0px" y="0px"
	 viewBox="0 0 512 512" style="enable-background:new 0 0 512 512;" xml:space="preserve">
<path d="M433.1,42.7c0-23.9-18.8-42.7-42.7-42.7H74.7C50.8,0,32,18.8,32,42.7v68.3h68.3v358.4c0,23.9,18.8,42.7,42.7,42.7h290.1
	c23.9,0,42.7-18.8,42.7-42.7v-42.7h-42.7V42.7z M100.3,93.9H49.1V42.7c0-14.5,11.1-25.6,25.6-25.6s25.6,11.1,25.6,25.6V93.9z
	 M117.3,469.3V42.7c0-9.4-3.4-17.9-8.5-25.6h281.6c14.5,0,25.6,11.1,25.6,25.6v384H168.5v42.7c0,14.5-11.1,25.6-25.6,25.6
	S117.3,483.8,117.3,469.3z M458.7,443.7v25.6c0,14.5-11.1,25.6-25.6,25.6h-256c6-7.7,8.5-16.2,8.5-25.6v-25.6H458.7z"/>
<path d="M330.7,273.1h68.3v17.1h-68.3V273.1z"/>
<path d="M134.4,273.1h179.2v17.1H134.4V273.1z"/>
<path d="M228.3,307.2h170.7v17.1H228.3V307.2z"/>
<path d="M134.4,307.2h76.8v17.1h-76.8V307.2z"/>
<path d="M288,375.5h110.9v17.1H288V375.5z"/>
<path d="M134.4,375.5h136.5v17.1H134.4V375.5z"/>
<path d="M252.2,174.1l10.2,6.8l10.2-6.8c30.7-20.5,49.5-55.5,49.5-92.2V53.8l-59.7-19.6l-59.7,19.6v28.2
	C202.7,118.6,221.4,153.6,252.2,174.1z M219.7,65.7l42.7-14.5l42.7,14.5v16.2c0,31.6-15.4,60.6-41.8,78.5h-0.9l-0.9-0.9
	c-26.5-17.1-41.8-46.9-41.8-78.5V65.7z"/>
<path d="M288,86.2l-17.1-1.7c-1.7,14.5-9.4,28.2-21.3,36.7l9.4,14.5C275.2,123.7,286.3,105.8,288,86.2z"/>
<path d="M185.6,341.3h213.3v17.1H185.6V341.3z"/>
<path d="M134.4,341.3h34.1v17.1h-34.1V341.3z"/>
<path d="M228.3,238.9h170.7V256H228.3V238.9z"/>
<path d="M134.4,238.9h76.8V256h-76.8V238.9z"/>
<path d="M202.7,196.3h119.5v17.1H202.7V196.3z"/>
</svg>
