<?xml version="1.0" encoding="utf-8"?>
<!-- Generator: Adobe Illustrator 24.3.0, SVG Export Plug-In . SVG Version: 6.00 Build 0)  -->
<svg version="1.1" id="Layer_1" xmlns="http://www.w3.org/2000/svg" xmlns:xlink="http://www.w3.org/1999/xlink" x="0px" y="0px"
	 viewBox="0 0 160 1081" style="enable-background:new 0 0 160 1081;" xml:space="preserve">
<style type="text/css">
	.st0{opacity:7.000000e-02;fill:#0A3F78;enable-background:new    ;}
</style>
<path class="st0" d="M15,993l1.4,2.8l-5.6,8.1v3.3l6.6-9.5l1.5,3l-8.1,11.7v3.5l8.9-12.9l0.9,2.6l-9.8,14.4v3.5l9.7-14.2l-0.1,1
	l-9.6,13.6v6.9l5.1-6.3l-0.2,0.8l-4.8,6.1v3.1l5.3-6.7l0.7,2.9l-6.1,9.1v3.5l7.2-10.7l2.5,3.5l-9,18.1l-0.6-0.5v5.9l1.4-2.6l6.9,4.5
	l-8.2,17.7v1.6h2l-0.4-0.3l8.3-17.9l5,4.3l-6.1,13.9h2.2l4.6-10.5l0.1,1.5l-4.1,8.9h5.4l4.9-14.6l0.4,1.9l-3.5,12.7h1.9l3-10.9l4,4
	l-1.8,6.8h2l1.4-5.4l5.3,4.3l-0.3,1h4.2l-1.6-1.7l3.6-18.4l1.8,1.4l-0.5,3.6l-0.8,5.5l-1.8,9.5h2.4l1.8-11.9l1.5,2.9l-0.9,9h1.9
	l0.7-7.5l5.9,4.5l-0.2,2.9h2l0.1-1.6l2.3,1.6h3.6l-5.8-3.9l2.6-18.9l6.8,4.6l-2.4,18.2h2.1l2.2-16.4l3.4,3.9l-1.3,12.5h1.9l1.1-10.1
	l2.3,3.3l-1,6.8h2l0.7-4.8l2.3,2.6l-0.5,2.2h2l2.1-8.8l0.7,2.4l-1.5,6.4h1.9l0.9-4.1l2.9,4.1h2.5l-0.3-0.4l1.5-19.8l2.2,3.5
	l-0.4,16.7h1.9l0.3-13.7l2.1,3.3l0.4,10.4h2l-0.2-6.5l1.3,2.4l0.4,4h2l-0.1-1l0.8,1h4l2.1-19.9l9.4,5.5l-3.4,14.3h2l3.2-13.4
	l12.5,5.8l-2.6,7.6h2l2.4-6.9l14.7,6.1l-0.3,0.8h1.9v-4.5l-0.9,2l-14.7-6.1l10.5-21.9l5.1,2.2v-2.1l-4.2-1.8l4.2-6.4v-3.6l-6,9.2
	l-14.6-5.9l11.9-21.8l8.7,3v-2.1l-7.6-2.6l7.6-12.6v-4l-9.5,15.8l-17.9-5.9l10-21.8l17.4,4.9v-2.1l-16.4-4.6l12.8-21.7l3.5,1v-2
	l-2.5-0.7l2.5-4.8v-4.2l-4.5,8.4l-19.8-5.6l11.8-21.7l12.5,3.6v-2.1l-11.7-3.3l8.3-21.6l3.4,1.1v-2l-2.8-0.9l2.8-13.6v-15.3
	l-0.1,4.6l-14-5.1l0.9-21.5l13.1,4.7v-2.1l-13-4.7l0.1-21.6l12.9,4.4v-2.1L148,835l4.2-21.7l8.5,2.8v-2l-8-2.6l7-21.8l1.1,0.3v-2
	l-0.4-0.1l0.4-1.2v-5.2l-2.2,5.7l-9.3-4.3l7.6-21.6l3.8,1.6v-2.1l-3.2-1.4l3.2-7.9v-5.4l-5,12.3l-5.2-3.7l8.1-21.6l2,1.3v-2.3
	l-1.2-0.8l1.2-2.5v-4.7l-1.9,3.9l0-0.9l1.3-2.9l0.6-1.3V709l-7.6,15.3l-0.1-1.1l5.6-21.2l2.1,1.6v-2.3l-1.6-1.2l1.6-3.6v-4.9
	l-3.2,7.3l-5.7-3.5l5.5-20.8l3.4,1.3v-2.1l-2.9-1.1l2.9-9.5v-6.4l-4.6,15.2l-8.1-3.6l1.3-20.8l11.4,3.2v-2.1l-11.3-3.2l0.3-20.6
	l11,2.5v-1.9l-11.1-2.5l-1.7-20.7l12.8,2.7v-2l-13.1-2.7l-4.6-20.6l17.4,3.5l0.3,1.5V577l-4.5-16.2l4.5,1.1v-2l-5.2-1.3l-4.6-20.8
	l9.8,2v-2l-10.2-2.1l-2.8-20.8l13,2.2v-2l-13.3-2.3l-0.3-20.9l6.7,1.2l6.7,16.8l0.1,0.3v-5.5l-6.7-16.4l1.6,1.3l5,9.3V495l-2.3-4.3
	l2.3,0.8v-2.2l-3.6-1.2l-8.7-21.7l5.1,2.4l7.2,13.8v-4.2l-4.6-9l4.6,1.2v-2.1l-5.6-1.4l-2.9-22.5l8.4,2.3V445l-8.5-2.3l3.1-22.6
	l5.4,1.5v-2.1l-4.9-1.3l4.9-17v-8.2l-8.9-2.6l3.8-22.6l5.1,1.1v-2l-4.9-1.1l1.5-22.6l3.4,0.6v-2l-3.2-0.5l1-22.5l2.1,0.3v-1.9
	l-2.1-0.3l2.1-20.7v-14l-1.5,9.9l-17.9-2.4l5-22.5l14.3,1.9v-2l-13.7-1.9l6.6-22.5l7.1,1.1v-1.9l-6.7-1l4.6-22.6l2.2,0.3v-2
	l-2.1-0.3l-1-22.6l3.1,0.4v-2l-3.1-0.4l-2.5-22.5l5.7,0.6v-2l-5.7-0.7l-0.1-22.6l5.8,0.5v-1.9l-5.8-0.5l3.8-22.7l2.1,0.2v-1.9
	l-1.5-0.1l1.5-3.8v-5.4l-3.4,8.8l-16-1.4l8.1-22.7l11.3,0.9v-2l-10.6-0.9l10.6-21.9v-4.5L160,67l-15.8-1.2l13.6-22.7l3,0.2v-2
	l-1.7-0.1l1.7-2.4v-3.4l-4,5.6l-12.2-1.1l16.2-20v-4.7l-10.2-0.9l10.2-11V0.6l-12.5,13.6l-12.8-0.9l12.7-13.4h-2.6L133,13L123,12.2
	l11.5-12.4h-2.8l-11.2,12l-3.5-0.7l10-11.3h-2.5l-5.6,6.4l4.9-6.4H120l-1.5,2.6l0.9-2.6h-2.1l-2.5,7.3l-4.6-0.8l1.3-6.5h-2L108.2,6
	l-6.4-0.9l0.6-5.3h-1.9l-0.5,5l-4-0.8L96-0.2h-2l-0.2,3.8l-2.7-0.7l0.1-3.1h-2.1l-0.1,2.7l-2.5-0.6l0.1-2.1h-1.9l-0.1,1.6l-4.3-0.7
	l0.1-0.9h-2l0,0.6l-6.5-0.6H57.1L58,15.7l-2.6,15.4l-0.8,3.4l0,0.1l0,0.1l0,1.2l0,0.9L55,56.4c0,0,0,0,0.1,0.1l0,0.1l4.3,21.8
	c0,0,0,0,0,0.1l0.8,2.4c0,0.1,0.1,0.1,0.2,0.2l0,0.3l-0.4,2.4L56.6,106c0,0,0,0,0,0.1c0,0,0,0,0,0.1l-0.4,22.1l0.1,0.1l0,0.1
	l5.3,22.1c0,0,0,0,0.1,0.1l0,0.1l3.7,9.3c0.1,0.1,0.2,0.1,0.3,0.2l2,6.5c0.1,0.1,0.2,0.2,0.2,0.3l0.4,4.5l0.6,8.2c0,0,0,0,0.1,0.1
	l0,0.1l2.9,9l-0.5,2.3c0,0,0,0,0,0.1c0,0,0,0,0,0.1l-1.9,23.1c0,0,0,0.1,0.1,0.1l0,0.1l3.6,23.1c0,0.1,0.1,0.1,0.1,0.1
	c0,0.1,0,0.1,0,0.2l9.9,18.8c0.1,0.2,0.3,0.2,0.4,0.4l3.5,20.4c0,0,0,0,0.1,0.1l0,0.1l0.9,2.5l4.5,12.6l-0.1,3.3l-0.5,2.8L87.7,322
	c0,0,0,0,0,0.1s0,0,0,0.1l-0.3,22.7l1.2,15.2l0.1,4.7l-0.1,7.2l-0.3,2.1l-1.3,4l-0.2,0.4l-8.2,13.8l-3.4,5.3l-15.4,22l-1.3,2.2
	l-11,16.7l0,0.1l-0.1,0.1l-6.7,21.9c0,0.1,0,0.1,0,0.1c0,0.1,0,0.1,0,0.1l-0.1,21.9l0.1,0.1l0,0.1l5.4,21.9c0,0,0,0,0,0.1l7,18.7
	l-4.4,18.6l-2.5,19.5c0,0,0,0,0,0.1c0,0,0,0,0,0.1l0,19.5c0,0,0,0,0,0.1l0,0.1l3.4,19.5c0,0,0.1,0,0.1,0.1l0,0.1l8,19.5l8.9,19.5
	l5.7,17.9l-4,14.5l-2.8,13.9l-0.9,3l-0.3,1.1l-5.1,11.6l-9.5,20.6l0,0.1l0,0.1l-4.7,20.7c0,0.1,0.1,0.1,0.1,0.2c0,0.1,0,0.2,0,0.2
	l5.4,20.1l1.2,5c0,0,0,0,0.1,0.1l0,0.1l9.1,21.4l3.7,9.9L68,816l1.1,4.2c-0.1,0.1-0.2,0.2-0.2,0.3l-2.3,5.4l-8,18.3l-7,18.3
	c0,0,0,0,0,0.1L46.7,881l-3.6,18.4l-2.1,12.2l-2.5,10.3l-2.4,12.7l-3.4,10l-1.5,4.4l-7.3,18.4l0,0.1c0,0,0,0,0,0.1l-1.3,6.3
	L15,985.5l-4.2,7.4v6.8L15,993z M20.1,998.8l-1.5-2.9l11-17.1l1.4,2.9L20.1,998.8z M64.1,758l2,18.6l-6.1-3.3l-3.1-18.7L64.1,758z
	 M64,717.5l2.4,2.3l1.2,18.5l-3.3-2.6L64,717.5z M65.9,756.7l-1.5-18.3l3.4,2.7l2.7,18.6L65.9,756.7z M91.5,369.2L95,371l4.3,20.6
	l-5.3-2.1L91.5,369.2z M91.8,387.9l-1.3-1l0.1-8.4L91.8,387.9z M80.2,229.2l-1.8-8.3l1.7,0.8l0,6.2L80.2,229.2z M78.1,218.6l-1.3-21
	l1.8,0.9l1.2,13.5c0.1,0.2,0.1,0.4,0.3,0.7l0.1,6.9L78.1,218.6z M76.2,157.7l8.9,1.6l2.3,21.9l-8-1.6L76.2,157.7z M73.3,85l0.9,0.6
	l-3.2,22l-1.8-0.8L73.3,85z M72.5,68.1l-3.8-20.7l4,0.8l1.1,20.5L72.5,68.1z M145.5,416.1l-1.9,20.8l-0.2-0.3l0.1-22.1L145.5,416.1z
	 M143.5,411.9l0.2-22.5l6.1,2.3l-3.9,22.1L143.5,411.9z M149.7,723l-7.4-18.5l4.4,2.6l2.2,6.4c0.1,0.3,0.4,0.5,0.7,0.6l0,4.5
	L149.7,723z M22.6,1006.1L33,989.8l0,1.3L22.6,1007L22.6,1006.1z M21.9,1003.5l-0.9-2.6l10.8-17.1l1,2.6L21.9,1003.5z M29.9,1016.2
	l5.2-16.2l0.4,1.6l-4,17.3L29.9,1016.2z M30.9,1021.7l-4.1,17.9l-4-3.7l6.2-17.3L30.9,1021.7z M61.2,908.3l1.3,2.3l-6.8,13.1
	L61.2,908.3z M54.7,915.4l-2.7-2.9l7.7-16.7l0.7,0.6l-0.5,4.9l-1.8,8c-0.3,0-0.5,0.2-0.7,0.5L54.7,915.4z M72.8,843.9l0.6,2.3
	l0.9,4.8l0,0.3l-3-2.8L72.8,843.9z M71.7,823.3l1.8,1.9l0,10.6L71.7,823.3z M75.4,855.1l2.3,12.1l0.1,0.2l-2.4,7.6l-3.9-3.2
	L75.4,855.1z M60.7,536.3l2.2,1.5l6.5,18.8l-1.8-1.4L60.7,536.3z M62.8,550.4l-4.3-1.8l1.9-5.1L62.8,550.4z M73.6,478l2.3,20.4
	l-10.1-2.8l-2.9-20.3L73.6,478z M62.8,473.1l0.7-20.4l10.9,2.7l-0.9,20.4L62.8,473.1z M130.8,400l5.7,20.9l-15.6-2.7l-4.6-20.8
	L130.8,400z M115.8,395.3l-5-20.8l13.5,2.5l6,20.9L115.8,395.3z M122.3,440.5l-15.4-2.9l-1.1-20.7l13.5,2.8L122.3,440.5z
	 M122.5,442.6l1.4,20.8l-17.4-3l0.4-20.7L122.5,442.6z M106.4,462.5l17.6,2.9l-0.4,20.8l-17.9-3.1L106.4,462.5z M123.6,488.2
	l0.4,20.7l-17.7-3.2l-0.7-20.7L123.6,488.2z M121.2,420.2l15.8,2.7l4.5,20.9l-17.3-2.9L121.2,420.2z M139,423.2l2.4,0.4l0.1,10.7
	L139,423.2z M141.4,421.8l-2.8-0.6l-5.6-20.8l7.2,1.6l1.1,7.3l0.1,3.2L141.4,421.8z M132.5,398.2l-6-20.8l8.7,2.4l2.8,6.5l2,13.5
	L132.5,398.2z M125.9,375.4l-5.6-20.7l6.4,2l7.7,20.9L125.9,375.4z M126,354.4l-6.2-2.1l-5-19.6l1.1,1.5l9.3,17.4c0,0.1,0,0.1,0,0.2
	L126,354.4z M130.3,357.1l-11.7-21.8l6.1,1.9l6.6,20.7L130.3,357.1z M121.4,313.4l15.4,2.5l1.5,22.3l-12.1-2.5L121.4,313.4z
	 M124.2,335l-6.8-2.1l-8.9-22.1l11,2.2L124.2,335z M119.4,311l-11.5-2.3l0.3-22.2l13.1,2.3L119.4,311z M112,325l-10.2-16.2l4.3,1.5
	L112,325z M111.5,327.7l0.2,1.1l-9.3-2.1l-1.5-15.6L111.5,327.7z M112.2,330.9l5.3,21l-11.7-2.3l-3.1-20.8L112.2,330.9z M118.1,354
	l5.7,20.9l-13.3-2.5l-4.2-20.8L118.1,354z M113.8,394.8l-12.2-2.5l-4.3-20.7l11.6,2.4L113.8,394.8z M103.4,414.5l-8-2.3l-1.3-20.4
	l5.6,2.1L103.4,414.5z M101.9,394.4l12.3,2.6l4.6,20.7l-13.3-2.6L101.9,394.4z M108.5,527.9l-12.9-3.1l-4.4-20.4l13.3,3L108.5,527.9
	z M90.4,1016.3l-1.8,7.2l-4-4l4.8-19.2l1.3,1.3l0.4,1.3l-0.9,7.2c0,0,0,0,0,0.1l0,0.1L90.4,1016.3z M43.7,983.9l2,3.1l-6.6,17.4
	l-1.5-2.9L43.7,983.9z M36.7,998.3l-0.4-1.7l5.9-16.4l0.4,1.5L36.7,998.3z M66.4,921.1l-2.1-2.7l1.9-3.7l-0.1,4.2c0,0,0,0,0,0.1
	c0,0,0,0,0,0.1L66.4,921.1z M65.8,923.3l-8,17.2l-1.5-2.7l7.3-17.4L65.8,923.3z M75.5,585.5C75.5,585.5,75.5,585.5,75.5,585.5
	C75.4,585.5,75.4,585.5,75.5,585.5l2.8,10l-4.3-1.1l-0.5-17.6l0.5,1l0.1,0.3L75.5,585.5C75.4,585.5,75.4,585.5,75.5,585.5
	C75.5,585.5,75.5,585.5,75.5,585.5C75.4,585.5,75.4,585.5,75.5,585.5C75.5,585.5,75.5,585.5,75.5,585.5z M77.7,577.4l-8.3-18.3
	l1.3,1l8.5,18.4L77.7,577.4z M93.5,524.3l-10.7-3L78.4,501l10.8,2.9L93.5,524.3z M89.5,481.7l14.1,3l0.7,20.6l-13.4-3L89.5,481.7z
	 M106.4,622.7l-1.6-1.1l-11.3-17.3l0.5,0.3L106.4,622.7z M102.6,611.4l1.5,1l8.3,12.8L102.6,611.4z M109.6,830.3l0.8,2.6l-12.5,20.2
	l-0.4-2.3L109.6,830.3z M92.2,854.8l-0.9,1.4l-3-1.3l1.5-19.1l9.3,4.1l-0.3,4.8l-0.3,0.6l-0.7,1.1c0,0.1-0.1,0.1-0.1,0.1L92.2,854.8
	z M105.4,667.3l-3.7-17.9l1.5,1.5l7.8,19.1L105.4,667.3z M105.7,688.2l-10.1-3.4l0.6-19.2l7.3,3.1L105.7,688.2z M119.8,676.9
	l10,19.3l-9.1-3.2l-6.2-18.9L119.8,676.9z M113.6,671.4l-6.8-16.7l0.3,0.4l11,18.8L113.6,671.4z M110.5,657.2l3.2,1.9l11.5,18.6
	l-4.1-2.2L110.5,657.2z M103.8,638.6l5.7,2.6l11.4,19.1l-5.7-2.7L103.8,638.6z M102.2,635.7l-9.9-18.9l4.3,2.3l11.3,19.1
	L102.2,635.7z M87.7,599.9l1.1,0.8l12.3,18.8l-3.2-1.9L87.7,599.9z M94.7,616l-4-2.1l-7.3-17.4l0.5,0.5L94.7,616z M98.9,633.9
	l-3-1.9l-7.3-14.8l-0.1-0.1l-1.7-3.3l2.3,1.6L98.9,633.9z M100.7,637.2l10.8,18.3l-3-1.8l-10.8-18.2L100.7,637.2z M112,672.8
	l6.4,19.4l-10.6-3.5l-2.1-19.1L112,672.8z M119.1,694.5l5.4,19.4l-14.3-3.8l-2.2-19.3L119.1,694.5z M110.3,733.3l0.8,19.4l-17.7-4.1
	l-0.5-19.3L110.3,733.3z M94.4,771.7l15.8,4.2l-3,19.3l-12.9-4.2L94.4,771.7z M94.3,769.9l-0.8-19.3l17.6,4.1l-0.8,19.3L94.3,769.9z
	 M108.7,797.8l11.9,3l-8.3,18.5l-7.4-2L108.7,797.8z M120.4,807.5l1.1,2.6l-9.8,20.3l-0.8-2.4L120.4,807.5z M111.4,835l2.1,3.2
	l-12.1,21.2l-2.9-3.5L111.4,835z M101.9,862.5l5.2,4.1l-11,21.4l-7.8-4.4L101.9,862.5z M102.9,860.8l11.9-20.7l1.8,3.2l-8.5,21.5
	L102.9,860.8z M115.8,838l8.4-18.4l0,0.3l-6.8,20.9L115.8,838z M114.5,836.1l-2-3.2l10-20.6l1.5,2.9L114.5,836.1z M122.4,807.4
	l-1-2.2l6.8-19.7l0.4,1.6L122.4,807.4z M112.5,774.5l0.8-19.4l18.7,4.2l-0.3,10.8l-2.9,8.1L112.5,774.5z M128.1,780.1l-0.6,1.9
	l-3.3,9.5l-2.8,7.4l-12.2-3l3-19.4L128.1,780.1z M94.2,793.3l12.7,4l-3.8,19.2l-10.2-4L94.2,793.3z M104.6,819.3l6.8,1.8l-0.7,1.5
	l-8.8,16.2l-0.8-0.2L104.6,819.3z M97.5,857.4l2.9,3.6l-13.6,21.3l-4.4-4L97.5,857.4z M87.5,885.3l7.9,4.5l-10,21.2l-8.4-4.6
	L87.5,885.3z M84.6,912.8l-5.9,20.9l-5.5-4.4l3.2-21.1L84.6,912.8z M78.3,935.9l-0.6,19.2l-1.4-2.5l-2.8-20.5L78.3,935.9z
	 M76.9,960.4l0.3,0.6l-0.6,2l-6.4,11.2l-0.4-2.1L76.9,960.4z M68.5,966.3l-4.9,7.8l-0.9-2.1l10.5-18.1l1.4,2.6L68.5,966.3z
	 M79.5,967.3l1.5,4.1c0,0.1-0.1,0.1-0.2,0.2l-6.5,13.3l-1.2-2.8L79.5,967.3z M81.9,974.1l2.2,8l0.3,0.8l-3.7,8.5l-5.1-4.2
	L81.9,974.1z M85.3,985.6l3.4,10.2l-0.4,1.1l-6.2-4.4L85.3,985.6z M85.9,981.5l-5.5-19.6l3,2.9l3.1,17.5L85.9,981.5z M79.4,958.2
	l0.8-21.1l7.5,4.5l-4,20.7L79.4,958.2z M80.2,935l6.1-21.2l10.6,4.8l-8.7,21.2L80.2,935z M87.2,912l10-21.2l10.4,4.8l-9.8,21.4
	L87.2,912z M98,888.9l10.8-21.2l8,4.6l-8.4,21.4L98,888.9z M109.8,865.9L118,845l3.8,3.8l-4.4,21.5L109.8,865.9z M118.7,842.9
	l6.5-19.6l0.6,1.9l-3.6,21.2L118.7,842.9z M125,812.6l-1.4-2.6l6.3-20.1l1,2.2L125,812.6z M129.8,783.8l-0.4-1.4l6.4-18.4
	L129.8,783.8z M133.8,757.8l-2.2-19.4l12.1,3.4l-7.8,16.5L133.8,757.8z M131.7,757.4l-18.6-4.2l-0.8-19.4l17.2,4.1L131.7,757.4z
	 M112.3,731.7l-1.8-19.3l14.6,3.8l4.1,19.5L112.3,731.7z M121.5,695.2l9.6,3.5l7.5,19.5l-11.8-3.7L121.5,695.2z M122.8,678.4
	l4.5,2.6l10.6,18.9l-5.5-2.7L122.8,678.4z M117.1,660.6l5.6,2.7l11.3,18.9l-5-2.6L117.1,660.6z M112.6,642.6l6.3,2.7l12.8,19.4
	l-7.7-2.9L112.6,642.6z M110.8,639.6l-11-18.7l3.6,2l13.3,19.1L110.8,639.6z M99.6,607.1l-10.8-19.4l4.8,2.3l8.9,19L99.6,607.1z
	 M87.4,584.8l-6.7-20.1l8.2,2.9l4.1,19.9L87.4,584.8z M79.9,562.3l-4.6-20.2l10.8,3.1l2.5,20.2L79.9,562.3z M88.2,545.8l11.2,3.1
	l3.3,20.4l-12-3.2L88.2,545.8z M87.8,543.7l-4.6-20.2l10.7,2.9l4.9,20.4L87.8,543.7z M85.8,543l-11-3l-4.4-20.2l10.8,3L85.8,543z
	 M77.7,561.4l-5.4-2.6l-6.9-19.9l7.9,2.7L77.7,561.4z M73.4,561.5l4.8,2.3l6.4,18.9l-2.2-1.7L73.4,561.5z M80.9,582.4l10.5,18
	l-1.1-0.8l-10.1-17.7L80.9,582.4z M87.6,611.8l-2.5-1.6l-4.2-14.3L87.6,611.8z M83.4,625.3l1.8,10.8l-1.9-1.7L83.4,625.3z
	 M84.5,620.1l1.7,1.6l5.6,18.9l-4.3-2.4L84.5,620.1z M87.6,640.5l4.9,2.7l1.8,19.3l-6.8-3.1L87.6,640.5z M94.1,641.8l-5.3-17.9
	l1.3,1.1l1.9,4.1l0.1,0.1l5.9,14.9L94.1,641.8z M99.1,647.1l4,19.2l-6.9-3.1l-1.7-18.9L99.1,647.1z M95.6,686.7l10.4,3.5l2.2,19.4
	l-14.1-3.8L95.6,686.7z M108.4,711.8l1.7,19.4l-17.3-4l1.1-19.3L108.4,711.8z M102.7,818.5l-3.4,19.3l-9.5-4.1l2.8-19.2L102.7,818.5
	z M91,811.6l-6.9-3.7l-0.7-19.1l8.9,3.7L91,811.6z M84,810.2l6.8,3.6l-2.8,19.1l-6.2-3.7L84,810.2z M87.7,834.9l-1.5,19l-6.4-3.7
	l1.8-19L87.7,834.9z M86.2,856.1L87,862l-5.4,7.4l-1.5-17L86.2,856.1z M95.9,853.1l0.5,2.5l-14.8,20.7l-0.7-2.7L95.9,853.1z
	 M81.4,880.1l4.5,4l-10.5,21.1l-5.1-4.2L81.4,880.1z M74.6,907.2l-3.1,20.3l-2.8-3.5l1.1-20.7L74.6,907.2z M71.9,943.2l1.2,4.4
	l0.5,1.9l-0.5,0.9l-3.2-3.5L71.9,943.2z M71.9,952.2l-10.6,18.2l-3.1-3.5l10.4-18.1L71.9,952.2z M60.4,972.2l-9.8,18l-2.6-3.5
	l9.3-18L60.4,972.2z M56.9,965.2l-2.6-3.4l11.5-17.8l1.6,3L56.9,965.2z M53.6,959.5l-0.5-2.2l11.8-16.9l0.1,1.5L53.6,959.5z
	 M53.4,963.8l2.6,3.3l-9.1,17.8l-2.2-3.2L53.4,963.8z M43.8,978.8l-0.4-1.9l8.3-17l0.4,1.9L43.8,978.8z M47.2,988.8l2.5,3.3
	l-7.5,17.7l-1.8-3.1L47.2,988.8z M50.7,994.6l0.9,2.3l-3.2,8l-4.2,9.6l-0.9-2.5L50.7,994.6z M50.2,1005.6l5-12.3l-5,16.2l-0.7-2
	L50.2,1005.6z M52.7,994.2l-0.9-2.2l9.6-17.8l0.8,2l-6.5,10.3l0,0.1c0,0,0,0-0.1,0.1L52.7,994.2z M64.2,976.9l3.6-5.8l-0.1,0.5
	l-10.1,17l0-1.2L64.2,976.9z M68.2,974.7l0.4,2.2l-9.5,18.4l-1.3-3L68.2,974.7z M59.4,999.9l2,3.1l-1.2,10.8l-1.3,4.6c0,0,0,0,0,0.1
	c0,0,0,0,0,0.1l-0.3,2.1l-3.1-2.9L59.4,999.9z M60.2,997.4l8.9-17.1l0.1,1.7l-6.9,18.5L60.2,997.4z M72.3,984.9l1,2.5l-5.9,18.3
	l-1.3-2.7L72.3,984.9z M74.8,989.2l5.1,4.1l-5.4,19.2l-5.8-4.3L74.8,989.2z M81.5,994.5l6.2,4.4l-4.7,19.2l-6.9-4.5L81.5,994.5z
	 M89.3,987.2l-3.6-20.8l6.8,4.4l0.9,20.4L89.3,987.2z M92.9,968.8l-7.5-4.9l4.1-21.3l9.8,4.9L92.9,968.8z M101.1,948.3l13.2,5.3
	l-8.6,21.4l-11.1-5.3L101.1,948.3z M100.1,945.7l-10-5l8.7-21.4l11.5,5.1L100.1,945.7z M99.5,917.6l9.9-21.4l12,4.9l-10.2,21.4
	L99.5,917.6z M110.1,894.4l8.4-21.3l11.1,4.8l-7.5,21.5L110.1,894.4z M119.1,871.2l4.3-21.3l8.6,4.5l-2,21.5L119.1,871.2z
	 M123.9,848l3.6-21.2l6,4l-1.3,21.5L123.9,848z M126.8,821.7l-0.5-1.7l5.7-19.8l0.5,1.6L126.8,821.7z M131.5,789.1l-0.9-2l6.1-19.8
	l0.5,1.5L131.5,789.1z M139.3,776.3l1.1,2.3l-6.9,20.1l-0.6-1.8L139.3,776.3z M138.5,766.1l-0.6-1.9l9.1-19.9l0.3,1.4L138.5,766.1z
	 M144.5,740l-13.3-3.8l-4-19.4l12,3.8l5.3,19.1L144.5,740z M133.7,700l6,2.9l7.7,19.2l-6.4-3.1L133.7,700z M130.6,682.7l5.1,2.6
	l9.6,18.7l-4.2-2.4L130.6,682.7z M125.7,664.4l7.9,3l10.7,19.3l-7.1-3L125.7,664.4z M144.2,682.7l-7.7-14l3.5,1.5
	c0.2-0.1,0.4-0.1,0.6-0.1L144.2,682.7z M141.8,667l4.2,2.6l0,12.3L141.8,667z M134.9,665.7l-12.6-18.9l4.9,2.4l10.2,13.9
	c0.2,0.2,0.4,0.3,0.6,0.3l1.8,3.4l0.3,1.1L134.9,665.7z M120.2,643.7l-12.4-17.9l1.7,1.1l14.8,18.8L120.2,643.7z M120,633.4
	l-12.8-19.9l7.6,2.9l8.5,19.1L120,633.4z M105.6,610.8l-9.3-20.1l11.1,3.2l6.6,20.1L105.6,610.8z M95.1,588.5L91,568.2l12,3.2
	l3.8,20.3L95.1,588.5z M101.4,549.4l13.4,3.2l5,20.5l-15.2-3.3L101.4,549.4z M101,547.3l-4.9-20.4l12.8,3.1l5.4,20.5L101,547.3z
	 M103.6,482.7l-14.3-3l0.9-20.5l14.2,2.9L103.6,482.7z M88.5,456.8L76.6,454l5.1-20.5l9.5,2.6L88.5,456.8z M88.4,458.7l-0.9,20.5
	l-11.9-2.9l0.9-20.4L88.4,458.7z M87.4,481.3l1.5,20.4l-11-2.8l-2.4-20.4L87.4,481.3z M76.3,500.4l4.4,20.3l-10.8-2.9l-3.7-20.2
	L76.3,500.4z M72.7,539.4l-8.1-2.9l-4.7-19.9l8.5,2.7L72.7,539.4z M71.8,573l-0.2,1.1l-9.3-2.8l2.7-15L71.8,573z M71.5,576.1
	l0.6,17.7l-9.4-2.9l-0.4-17.6L71.5,576.1z M72.3,595.8l3.3,17.6l-8.6-2.8L63.2,593L72.3,595.8z M74.4,596.4l4.6,1.3l1.3,4.5
	l1.3,11.5l0,1.7l-3.9-1.3L74.4,596.4z M81.6,617.5l-0.1,6.9l-0.1,0.9l-3-8.9L81.6,617.5z M82.9,636.8l2.7,2.4l-0.2,19.2l-5.4-2.8
	L82.9,636.8z M87.2,661.4l7.2,3.2l-0.7,19.4l-9-3.4L87.2,661.4z M93.6,686.1l-1.4,19.4l-11.8-3.6l4-19.2L93.6,686.1z M92.1,707.4
	L91,726.8L77.1,723l2.9-19.2L92.1,707.4z M91,728.8l0.6,19.3L78,744.2L77.1,725L91,728.8z M78.7,764.5l-6-3.2L70,742.3l6.2,3.3
	L78.7,764.5z M78.2,746.2l13.4,3.8l0.9,19.2l-11.6-3.9L78.2,746.2z M92.4,771.3l-0.1,19.1l-9.1-3.8L81,767.5L92.4,771.3z
	 M82.2,806.7l-5.6-3.4l-1.1-18.8l6,3.3L82.2,806.7z M76.4,805.5l5.7,3.5L80,827.8l-4.6-3.4L76.4,805.5z M75.4,826.9l4.3,3.2
	L78,848.4l-2.7-2.9L75.4,826.9z M79.1,864l-3-14.9l1.8,2L79.1,864z M74.8,877.1l-1,5.6l-4.7,8.6l-0.2-0.2l2.1-17L74.8,877.1z
	 M79.6,876.1l0.5,2.3l-10.7,20.2l-0.7-2.5L79.6,876.1z M70.3,937.2l0.9,3.2l-2.6,4.6l-1.6-2.8L70.3,937.2z M63.3,938.8
	c0,0.1,0,0.2-0.1,0.4l-3.7,5.4l-0.6-1.8l8.2-17.6l1.2,4.8L63.3,938.8z M63.1,908l-1.3-2.1l2.6-16.7l2.3,2.6L63.1,908z M63.7,912.4
	l0.3,0.5l-0.3,0.6L56.9,929l-1.7,2.7l-0.6-2L63.7,912.4z M55.5,940.5l1.3,2.2l-6.4,15.1l0-0.2L55.5,940.5z M50.9,947.8l-7.1,12.4
	l-0.7-2.1l8-11L50.9,947.8z M43.4,967.2l-9.3,17l-0.9-2.5l9.8-16.5L43.4,967.2z M36.9,1004.4l1.3,2.5l-3.3,17.3l-1.9-3L36.9,1004.4z
	 M39.7,1009.5l1.5,2.6l-3.8,16.7l-1-2.2L39.7,1009.5z M42.5,1015.4l0.7,1.7l-4.3,15.5l-0.1-0.7L42.5,1015.4z M43.6,1030l2.2,3.2
	l-2.9,18l-3.3-3.6L43.6,1030z M44.1,1027.5l4.4-16.7l0.6,1.9l-2.9,17.8L44.1,1027.5z M50.8,1014.9l2.8,3.4l-1.5,18.2l-4.2-3.8
	L50.8,1014.9z M51.2,1012.3l5.5-17.4l1.2,2.6l-3.9,18.2L51.2,1012.3z M55.4,1020.1l3,2.8l-2.3,16.4l-0.1,0.4l-2.1-1.7L55.4,1020.1z
	 M60.1,1026.8l1.7,2.9l-3.1,17.9l-1.6-2.9L60.1,1026.8z M60.6,1023.8l4.6-17.9l1.3,2.6l-4,18.3L60.6,1023.8z M68.2,1010.2l5.8,4.3
	l-3.7,19.1l-6.3-4.4L68.2,1010.2z M75.7,1015.7l6.9,4.5l-3.6,19.2l-6.9-4.6L75.7,1015.7z M84.3,1021.7l3.9,4l-3.9,18.9l-3.5-3.9
	L84.3,1021.7z M89.8,1027.2l1.3,1.5l0.2,3.8l0.5,5.3l-2.8,12.3l-3.2-3.9L89.8,1027.2z M92.5,1044l0.7,6.9l-0.4,2.7l-2.1-1.6
	L92.5,1044z M90.4,991.1l3,3l3.3,17.7l-0.6-1.1L90.4,991.1z M95.8,995.9l6.7,4.5l0.8,20.3l-3.6-3.9L95.8,995.9z M102.6,998l-7.3-5
	l-0.9-21.2l10.7,5.1L102.6,998z M116.8,1007.4l14.1,5.6l-7.5,21.6l-9.7-5.6L116.8,1007.4z M111.8,1027.7l-6.6-4.9l-0.8-21.3
	l10.5,5.1L111.8,1027.7z M115.3,1004.6l-10.9-5.4l2.6-21.5l14.6,5.4L115.3,1004.6z M107.4,975.8l8.6-21.6l17.4,5.5l-11.2,21.6
	L107.4,975.8z M115.1,951.9l-13.2-5.2l10.2-21.4l14.2,5.1L115.1,951.9z M112.9,923.3l10.2-21.4l14.1,5.1l-10.1,21.5L112.9,923.3z
	 M124,900.1l7.5-21.5l13.1,4.9l-6.6,21.6L124,900.1z M131.9,876.7l2-21.5l11.9,4.8l-0.9,21.5L131.9,876.7z M134.2,853.3l1.3-21.4
	l10.5,4.5l-0.1,21.6L134.2,853.3z M134,828.8l-5.9-4l6.2-21.3l4.8,3.8L134,828.8z M134.7,801.4l7.4-21.4l4.8,3.7l-7.2,21.5
	L134.7,801.4z M141.4,776l-1.2-2.4l7.6-20.2l0.6,1.8L141.4,776z M146.4,736.1C146.4,736.1,146.4,736.1,146.4,736.1l-0.5,1l-4.3-15.4
	l6.7,3.1l0.4,1.4c0.1,0.4,0.6,0.7,1.1,0.7c0.1,0.2,0,0.3,0.2,0.4l-0.9,4.3L146.4,736.1z M148.3,705.8l-9.9-19.4l7.3,3l0.2,2.3
	c0,0,0,0,0,0c0,0,0,0,0,0c0,0,0,0,0,0c0,0.1,0.1,0.1,0.1,0.1s0,0-0.1-0.1l2.6,14.2L148.3,705.8z M146.1,667.3l-5-3.2l-4.9-20.5
	l11.3,3.5L146.1,667.3z M137.7,659.1l-10-18.9l6.1,2.7L137.7,659.1z M126.2,637.3l-9-20.2l12.3,3.4l3.9,20.1L126.2,637.3z
	 M116.4,614.7l-6.7-20.4l15.6,3.5l3.8,20.4L116.4,614.7z M109,592.3l-3.8-20.4l15.3,3.3l4.5,20.5L109,592.3z M116.9,553.2l17.6,3.3
	l5.9,20.6l-18.4-3.5L116.9,553.2z M116.4,551l-5.4-20.6l17.3,3.3l5.6,20.7L116.4,551z M110.5,528.4l-4-20.6l17.6,3.2l3.8,20.7
	L110.5,528.4z M125.5,488.5l19.7,3.2l0.3,20.8l-19.6-3.3L125.5,488.5z M125.5,486.6l0.4-20.8l19.1,3.1l0.3,20.9L125.5,486.6z
	 M143.6,458.3l0.2,2.8c0,0,0,0,0.1,0.1l0,0.1l0.1,0.5l0.7,5l-18.9-3l-1.4-20.8l17.5,2.9L143.6,458.3z M141.7,397.7l-1.6-10.5
	l1.7,1.3L141.7,397.7z M139.6,384.5l-5-22.2l6.5,2.2l0.6,21.6L139.6,384.5z M134,359.9l-7.2-22.2l11.7,2.4l2.4,22.1L134,359.9z
	 M136.9,313.8l-15.7-2.4l2-22.4l16,2.4L136.9,313.8z M121.6,286.9l-13.2-2.2l5.8-22.3l13.4,2.1L121.6,286.9z M126.2,187.2l-11.1-1.7
	l-2.4-22.1l10.7,1.6L126.2,187.2z M123.9,141l12.3,1.5l1.1,22.5l-12-1.7L123.9,141z M115,211.6l11.8,1.9l-5.6,22.4l-12.4-2
	L115,211.6z M113.4,209.4l-10.9-1.8l0.1-22.1l10.8,1.7L113.4,209.4z M115.2,209.7l0.1-22.2l11.1,1.7l0.5,22.3L115.2,209.7z
	 M112.6,161.4l-1.2-22.2l10.5,1.4l1.4,22.3L112.6,161.4z M122,138.7l-10.5-1.5l1.3-22.3l10.8,1.4L122,138.7z M111,112.7l-10.9-1.4
	l3.6-22.2l12.1,1.3L111,112.7z M104.2,87.1l8.3-22.3l13,1.2l-9.2,22.4L104.2,87.1z M102.2,87l-13.6-1.3l8-22.2l13.8,1.2L102.2,87z
	 M86.6,85.4l-9.8-1.2l8.3-22l9.7,1.1L86.6,85.4z M86,87.3l-3.2,22.1l-10-1.4l3.3-21.9L86,87.3z M84.8,111.7l13.1,1.4l-0.8,22.2
	l-12.2-1.5L84.8,111.7z M97,137.1l1.1,22.1l-11.3-1.6l-1.8-22L97,137.1z M98.1,111.1L85,109.8l3.2-22.1l13.6,1.2L98.1,111.1z
	 M99.8,113.2l10.9,1.4l-1.3,22.3l-10.5-1.5L99.8,113.2z M109.4,138.9l1.2,22.2l-10.5-1.6L99,137.3L109.4,138.9z M110.8,163.1
	l2.5,22.1l-10.7-1.7l-2.2-22.1L110.8,163.1z M102.4,209.5l10.9,1.8l-6.3,22.3l-10.4-1.9L102.4,209.5z M100.6,207.1l-10.3-1.8
	l-0.7-21.9l11.2,1.8L100.6,207.1z M108.1,235.8l12.4,2l-7.7,22.3l-12.2-2.1L108.1,235.8z M114.9,260.4l7.7-22.3l13.4,2l-7.6,22.5
	L114.9,260.4z M123.1,236.2l5.6-22.4l12.9,1.9l-5.1,22.5L123.1,236.2z M128.9,211.7l-0.5-22.3l12.3,1.8l1.1,22.4L128.9,211.7z
	 M128.3,187.6l-2.8-22.4l12,1.7l3.1,22.4L128.3,187.6z M138.1,142.7l14.7,1.6l0.1,22.6l-13.7-1.7L138.1,142.7z M136.2,140.5
	l-12.3-1.5l1.6-22.4l13.3,1.5L136.2,140.5z M123.9,114.4l-11-1.4l4.7-22.3l12.6,1.3L123.9,114.4z M118.3,88.8l9.1-22.6l13.7,1.3
	l-10.2,22.6L118.3,88.8z M126.3,64.2L113.5,63l15-22.5l12.5,1.1L126.3,64.2z M111.4,62.9l-13.6-1.1l15.1-22.3l13.4,1L111.4,62.9z
	 M95.6,61.4l-9.4-1.2l14.6-22.2l9.9,1L95.6,61.4z M84.1,59.7l-1-0.6l13.7-22.3l2,0.6L84.1,59.7z M91.9,41.2l-2.2,3.6l4.8-14.3
	l2.4,0.7L91.9,41.2z M87.8,44.2l3.3-15l1.5,0.6L87.8,44.2z M84.7,49.6l-0.3-0.1l3.2-21.4l1.6,0.6L84.7,49.6z M82.5,48.6L80.3,48
	l2.9-21l2.5,0.6L82.5,48.6z M82.3,50.6l-0.6,7.2l-0.8,1.4c0,0,0,0,0,0.1c0,0,0,0,0,0.1l-0.9,2.5l0.2-11.8L82.3,50.6z M78.4,47.4
	l-3.6-0.8l2.1-20.9l4.4,0.7L78.4,47.4z M78.3,49.3l-0.4,17.9l-0.9,2.6l-1.1-0.4l-1.1-20.9L78.3,49.3z M82.3,61.1l0.9,0.5l-8.3,22
	l-1-0.6L82.3,61.1z M82.9,111.3l0,22l-9.7-1.4l-0.4-21.9L82.9,111.3z M83,135.3l1.8,21.9l-8.9-1.5l-2.6-21.8L83,135.3z M87,159.7
	l11.3,1.5l2.2,22.1l-11.2-1.7L87,159.7z M90,207.4l10.2,1.8l-5.9,22l-7.4-1.8L90,207.4z M95.8,233.5l10.3,1.9l-7.4,22.2l-8.8-2
	L95.8,233.5z M100.3,259.9l12,2.1l-5.8,22.2l-9.8-2.1L100.3,259.9z M106.2,286.1l-0.3,21.9l-5.5-2l-3.6-22.1L106.2,286.1z
	 M98.8,308.1l1.7,18l-8-2l1.1-20.7l2.7,1.1l0.1,0.1c0,0.1,0.1,0.1,0.1,0.1s0,0.1,0.1,0.2l2.4,2.9C98.8,307.9,98.7,308,98.8,308.1z
	 M100.7,328.3l3.1,20.8l-10.3-2.3l-1.1-20.7L100.7,328.3z M104.2,351.2l4.2,20.8l-11.6-2.4l-3-20.7L104.2,351.2z M95.3,414.2
	l8.4,2.4l1.1,20.8l-11.5-2.6L95.3,414.2z M104.8,439.4l-0.4,20.7l-14-2.8l2.7-20.5L104.8,439.4z M91.4,434.2l-9.2-2.5l5.5-20.5
	l5.6,2.2L91.4,434.2z M80.4,431.1l-8.4-2.5l9.2-20.4l4.9,2.2L80.4,431.1z M79.9,433l-5.1,20.5l-10.8-2.7l7.2-20.4L79.9,433z
	 M62.1,450.3l-7.6-2.5l9.1-20.4l5.8,2.4L62.1,450.3z M61.7,452.3l-0.7,20.4l-8.2-2.7l1.3-20.2L61.7,452.3z M52.8,472l8.1,2.6
	l2.8,20.1l-8.2-2.7L52.8,472z M53.6,491.2l-5.1-2.4l-1.7-19.7l4,2.2L53.6,491.2z M64.1,497l3.8,20.1l-8.6-2.7l-3.4-20L64.1,497z
	 M62.2,535l-2.5-1.8l-6-19.5l3.9,2.1L62.2,535z M59.4,540.6l-2.6,7.1l-3.7-2.1l3.7-12.2L59.4,540.6z M58,550.4l5.7,2.5l0.1,0.1
	l-3.2,17.6l-6.3-2.6L58,550.4z M60.3,572.7l0.4,17.6l-6.6-2.6l0-17.5L60.3,572.7z M61,592.3l3.8,17.5l-6.5-2.6l-3.8-17.4L61,592.3z
	 M65.3,612.1l6.7,17.1l-5.5-2.4l-7.3-17.1L65.3,612.1z M67.8,612.9l8.2,2.8l4.5,13.5l-0.3,1.7l-0.3,1.5l-5.2-2L67.8,612.9z
	 M79.3,634.2l-1.3,5l-2.5-6.5L79.3,634.2z M81.1,634.7l0.1,0.2l-2.8,19l-1.9-2L81.1,634.7z M79.8,657.5l5.7,3.1L83,679.8l-7.4-3.3
	L79.8,657.5z M82.6,681.8l-4,19.2l-7.5-3.4l4.1-19.2L82.6,681.8z M78.2,703.1l-2.9,19.2l-6.9-3.4l2.4-19.1L78.2,703.1z M75.1,724.2
	l0.8,19l-6.3-3.3l-1.2-19L75.1,724.2z M70.8,762.2l2.3,18.6l-5-3.2l-2-18.5L70.8,762.2z M73,763.5l6,3.2l2.2,18.8l-5.9-3.3L73,763.5
	z M73.6,822.5l-2.3-2.6l-1-18.6l4.3,3L73.6,822.5z M73.6,853.4l-3.9,16.9l-2.8-2.8l3.8-16.9L73.6,853.4z M69.2,872.6l-2,16.6
	l-2.3-2.6l1.7-16.6L69.2,872.6z M64.2,863.3C64.2,863.3,64.2,863.3,64.2,863.3c0,0.1,0,0.1,0,0.2l-1.1,8.8l-1.8-1.2l4.9-16.5l0.3,0
	L64.2,863.3z M62.9,874.5l-0.9,8l-0.3,3.3l-2.7,6.9l-4.1-3.1l5.9-16.5L62.9,874.5z M53.4,888.2l-3.1-2.8l5.1-16.5l3.8,3L53.4,888.2z
	 M54.2,891.5l4,3.1L50.7,911l-2.8-2.9L54.2,891.5z M49.8,912.8l-8.3,15.8l-0.6-1.9l6.3-16.6L49.8,912.8z M51.2,914.4l2.6,2.9
	l-10.5,16.2l-0.9-2.3L51.2,914.4z M55,918.9l0.2,0.2l-1.9,5.6l-6.9,13.6c-0.2,0-0.4-0.1-0.6,0.1l-1.4-2.8L55,918.9z M53.2,931.9
	l0.6,2.1l-12.1,16l0.1-1.1L53.2,931.9z M54,936.9l-1.4,4.5l-10.4,14.3l-0.7-2.4L54,936.9z M41.6,960l0.7,2.4l-10.3,17.3l-1.5-2.8
	L41.6,960z M17.6,1025.9l9.2-15.2l0,0.3l-8.5,17.1L17.6,1025.9z M19.1,1030.7l8.3-16.6l0.4,2.1l-6.5,17.7L19.1,1030.7z M19.8,1059.6
	l-6.8-4.4l8.8-17.7l4.3,4.1L19.8,1059.6z M26.2,1064.9l-4.8-4l6.3-17.7l3.5,3.8L26.2,1064.9z M28,1067.5l-0.1-0.7l4.5-16.3l0.4,1.6
	L28,1067.5z M31.8,1044.6l-3.3-3.5l4-17.2l2,3.1L31.8,1044.6z M33.7,1047.7l-0.3-1.1l2.5-16.4l0.8,1.9L33.7,1047.7z M38.9,1071.7
	l-3.9-3.9l4.1-17.9l3.3,3.7L38.9,1071.7z M45.9,1077.6l-5.3-4.3l3.5-18.2l5.3,4.2L45.9,1077.6z M49.7,1057.1l-5.2-4.1l2.9-18.1
	l4.4,4L49.7,1057.1z M53.1,1059.9l-1.6-1.4l2.1-18.2l2,1.6l-0.5,2.9L53.1,1059.9z M56,1068.6l-1.5-2.8l2.2-17.8l1.6,2.8L56,1068.6z
	 M63.5,1075.7l-6-4.5l2.5-18.8l6.2,4.5L63.5,1075.7z M66.5,1054.6l-6.2-4.5l3.2-18.9l6.3,4.4L66.5,1054.6z M75.1,1060.5l-6.8-4.7
	l3.4-19l6.9,4.6L75.1,1060.5z M80.4,1065.8l-3.5-3.9l3.4-18.8l3.4,3.8L80.4,1065.8z M84.6,1071.4l-2.5-3.7l3.3-18.8l3.1,3.8
	L84.6,1071.4z M90.6,1068l-2,8.3l-2.5-2.8l4-19.4l2.3,1.7L90.6,1068z M93,1069.6l-0.5-1.5l2.7-17.4l0.2,0.7L93,1069.6z M96.9,1077.9
	l-2.6-3.8l2.6-19.4l1.6,3.1L96.9,1077.9z M97.4,1051.2l0.1-17.7l0.4,1.1l0.5,18.7L97.4,1051.2z M96.9,1015.9l0.9,1.5l2.3,17.4
	l-0.4-0.8L96.9,1015.9z M100.4,1057.3l-0.6-18.5l1,2l1.3,19.3L100.4,1057.3z M100.2,1020l3.2,3.6l1.3,19.3l-1.8-2.8L100.2,1020z
	 M104.3,1063.5l-1.3-19.3l1.8,2.7l1.2,19.4L104.3,1063.5z M108.3,1069.8l-1.3-20l2.8,3.5l0,19.3L108.3,1069.8z M110,1050.3l-3.2-4.1
	l-1.4-21l6.1,4.7L110,1050.3z M114.8,1080.3l-3.2-4.2l0.1-21.1l5.3,4.6L114.8,1080.3z M117.6,1057.6l-5.8-5l1.7-21.5l9.3,5.3
	L117.6,1057.6z M128.9,1064.5l-9.7-5.7l5.4-21.6l12.9,5.7L128.9,1064.5z M153.8,1049.5l-10.4,21.8l-12.7-5.9l8.7-21.8L153.8,1049.5z
	 M150.3,1019.4l-11.9,21.7l-13.2-5.8l7.6-21.8L150.3,1019.4z M131.6,1011.2l-14.4-5.7l6.3-21.7l18,5.7L131.6,1011.2z M155.3,966
	l-12.8,21.7l-18.2-5.8l11.2-21.7L155.3,966z M134.5,958l-17.5-5.5l11.2-21.6l18.2,5.4L134.5,958z M147.2,934.7l-18.3-5.5l10.1-21.5
	l16.5,5.3L147.2,934.7z M160.5,889.3L156,911l-16.3-5.2l6.6-21.6L160.5,889.3z M146.2,834.4l-10.6-4.5l5.2-21.5l9.6,4.4L146.2,834.4
	z M157.9,789.1l-6.9,21.7l-9.6-4.4l7.2-21.6L157.9,789.1z M155.2,760.3l-7.6,21.5l-4.8-3.7l7.2-21.5L155.2,760.3z M149.5,752.2
	l-0.6-1.7l8.3-19.5l0.1,0.6L149.5,752.2z M157.7,724.8l-9.1,18l-0.3-1.5L157.7,724.8z M157,700.7l-5,18.6l-0.2-1l0.1-20.8L157,700.7
	z M155.5,673.8l-5.2,20l-2.4-2.6l0-20.7L155.5,673.8z M147.7,624.6l-0.3,20.5l-11.9-3.6l-3.9-20.5L147.7,624.6z M147.6,622.5
	l-16.4-3.7l-3.8-20.5l18.5,3.6L147.6,622.5z M145.5,599.9l-18.6-3.6l-4.5-20.5l18.5,3.5L145.5,599.9z M159.8,581.1l-17.4-3.5
	l-5.9-20.6l17.5,3.4L159.8,581.1z M153.6,558.1l-17.5-3.4l-5.6-20.7l18.4,3.4L153.6,558.1z M148.5,535.4l-18.6-3.4l-3.8-20.7
	l19.5,3.2L148.5,535.4z M154.2,485.9l-1.5-1.2l-2.8-9.7L154.2,485.9z M150.9,485.5l2.1,5.4l-5.8-1l-0.3-18.3L150.9,485.5z
	 M153.1,466.3l-5.5-2.5l-2.2-22.1l4.9,2.3L153.1,466.3z M150.4,442l-5.1-2.5l2.1-22.5l6.2,2.5L150.4,442z M160.5,395.1l-6.5,22.5
	l-6.4-2.6l3.9-22.6L160.5,395.1z M150.1,389.8l-6.4-2.5l-0.6-22.4l10.7,2.5L150.1,389.8z M154,365.5l-11-2.5l-2.5-22.4l15,2.5
	L154,365.5z M155.6,341.1l-15.3-2.5l-1.4-22.4l17.7,2.4L155.6,341.1z M159.1,294l-2.3,22.6l-17.9-2.5l2.3-22.5L159.1,294z
	 M139.5,289.5l-15.9-2.3l6.1-22.4l14.9,2.2L139.5,289.5z M144.9,265l-14.7-2.1l7.6-22.5l13.8,2L144.9,265z M152,240.5l-13.6-2.1
	l5.1-22.5l13.1,2L152,240.5z M156.7,216l-13-1.9l-1-22.5l13,1.8L156.7,216z M155.5,191.4l-13-1.8l-3.1-22.4l13.5,1.7L155.5,191.4z
	 M156.7,119.7l-3.8,22.7l-14.8-1.7l2.6-22.6L156.7,119.7z M139.2,116.1l-13.3-1.5l6.3-22.5l15.2,1.3L139.2,116.1z M159.1,68.8
	l-11,22.7l-15.3-1.3L143,67.6L159.1,68.8z M155.7,42.8l-13.6,22.7l-13.5-1.2l14.7-22.6L155.7,42.8z M149.1,16.1l11.4,1l-18.2,22.6
	l-12.3-1L149.1,16.1z M133.7,15l12.9,0.9l-19.1,22.6l-13.2-1.1L133.7,15z M121.1,13.9l10.2,0.9l-19.4,22.4l-9.7-1L121.1,13.9z
	 M115.5,12.9l3.4,0.7L100,35.9l-2-0.6L115.5,12.9z M109.5,8.1l4.3,0.7l-1.5,2.5l-11.9,17L109.5,8.1z M101.4,7l6.1,0.8l-9.8,21.5
	l-2.7-0.8L101.4,7z M95.6,6l3.9,0.8L93.3,28l-1.7-0.6L95.6,6z M90.9,4.9l2.7,0.7l-4,21.2l-1.7-0.6L90.9,4.9z M86.4,3.8l2.5,0.7
	l-2.9,21.1l-2.6-0.7L86.4,3.8z M80.1,2.7l4.4,0.7l-3,21.1l-4.4-0.8L80.1,2.7z M69.9,1.5l8.3,0.9l-3,20.9l-7.3-0.9L69.9,1.5z
	 M75,25.3l-2.1,20.8l-4.4-0.9l-0.5-20.8L75,25.3z M61.1,0.7l6.8,0.8l-1.9,20.8l-5.2-0.9L61.1,0.7z M63.6,84l-1.5-0.6l3.1-20.1
	l0.6,0.3L63.6,84z M67.5,65.1L68,85.7l-2.6-0.8L67.5,65.1z M63.1,59.9l0.1-12.1l0.9,3.3l-0.6,9L63.1,59.9z M61,23.4l4.9,0.8
	l0.5,20.6l-2.3-0.7L61,23.4z M57.9,57.3l-1.1-19.6l0.5,0.2l1.5,19.8L57.9,57.3z M59.7,28l1.4,9.2l-1.9-0.6L59.7,28z M59.3,38.6
	l1.9,0.6l0,19.7l-0.5-0.3L59.3,38.6z M61.7,85.4l1.6,0.7L61,106.4l-2.3-0.8L61.7,85.4z M58.6,107.7l2.2,0.8l-0.7,20.2l-1.9-0.8
	L58.6,107.7z M58.7,130.1l1.5,0.7l2,13.8L58.7,130.1z M65.1,151.7l-2.9-20.3l3.5,1l0.5,19.8L65.1,151.7z M65.8,130.4l-3.8-1.1
	l0.7-20.3l4.1,1.1L65.8,130.4z M67,108.1l-4.1-1l2.4-20.3l2.8,0.9L67,108.1z M64.7,46.3l1.9,0.6L70,65.8l-0.8-2.7L64.7,46.3z
	 M69.1,108.7l1.8,0.8l0.4,21.9l-3-1L69.1,108.7z M68.4,132.5l3,1l2.5,21.6l-3.3-1.1L68.4,132.5z M70.7,179.5l-1.3-19.8l0.4,0.3
	c0,0.1-0.1,0.2,0,0.3l2,19.8L70.7,179.5z M71.2,156.2l3.1,1.1l3.1,21.1l-1.1-0.7L71.2,156.2z M73.7,195.6l1.1,0.8l1.3,21.3l-3.1-1.3
	L73.7,195.6z M73.2,218.5l3,1.2l4.4,21l-3.5-1.3L73.2,218.5z M78.4,242.1l2.9,1.1l0.3,4.8L78.4,242.1z M79.6,181.6l7.9,1.6l0.7,21.8
	l-6.3-1.7L79.6,181.6z M82.1,205.4l6.1,1.6l-3,21.7l-3-1.4L82.1,205.4z M82.3,229.4l2.6,1.2l-1.5,15.8L82.3,229.4z M87.7,271.6
	l-2.7-16l2.7,1.3L87.7,271.6z M84.7,253.4l2-22.1l7.1,1.8L88,254.9L84.7,253.4z M89.6,257.6l8.6,1.9l-3.6,22l-5-2L89.6,257.6z
	 M90.2,281.9l4.4,1.6l3.2,19.8L90.2,281.9z M94.7,368.6l-3.5-1.7l-1.6-20.1l2.2,1.4L94.7,368.6z M89.7,324.4l0.8,0.7l1.1,20.5
	l-2.1-1.3L89.7,324.4z M90.3,389.3l1.8,1.4l1.2,20.6l-5.2-2.1L90.3,389.3z M87.8,386.7l0.7,0.9l-2.2,20.8l-4.6-2.1L87.8,386.7z
	 M86.3,385.3l-6.3,20l-2.7-1.8L86.3,385.3z M76.2,405.4l3,1.9L70,428l-5.7-2.3L76.2,405.4z M74.5,403.1l0.4,0.8l-12,20.6l-1.3-1.4
	L74.5,403.1z M60.4,424.9l1.3,1.4l-9.1,20.5l-2.4-1.8L60.4,424.9z M49.7,447l2.3,1.8L50.8,469l-4.1-2.2L49.7,447z M47.3,449.5
	l-2.4,15.8l-1.2-1.3L47.3,449.5z M43.7,466.8l0.9,1.1l1.6,19.5l-2.2-1.7L43.7,466.8z M49.7,507.8l-4.8-19.1l1.8,1.3l3.8,18.5
	L49.7,507.8z M52.9,510.9l-4.1-19.7l5,2.2l3.3,19.7L52.9,510.9z M54.6,527.3l1.1,3l-4.1,13.3l-0.5-1L54.6,527.3z M52.6,547.5
	l3.6,2.1l-3.7,17.5l-3-2L52.6,547.5z M49.3,584.4l0.1-17.1l2.7,1.9l0.1,17.2L49.3,584.4z M49.8,587.1l2.5,1.7l3.7,16.9l-2.8-1.9
	L49.8,587.1z M54.6,607.2l2.1,1.4l6.9,16.3l-1.8-1.3L54.6,607.2z M70.8,643.1l-7.4-16l1.6,1.2l6.6,15.6L70.8,643.1z M67.8,629.5
	l5.3,2.4l4,10.6l-1.3,4.6l-0.8-0.4L67.8,629.5z M75.9,654.1l2.1,2.2l-4.2,19.1l-3.1-2.5L75.9,654.1z M70.2,675l3.1,2.5l-4,18.9
	l-2.9-2.6L70.2,675z M66.1,696.2l2.8,2.5l-2.3,18.7l-2.6-2.5L66.1,696.2z M63.8,755.7l-7.4-3.3l0.9-18.6l5,3.1L63.8,755.7z
	 M62,715.6l0.2,18.9l-4.7-2.9l3.4-17.8L62,715.6z M59.2,710.5l0.2,0.7l-3.6,19.1l-3.3-2.7L59.2,710.5z M52,729.7l3.4,2.8l-0.8,18.8
	l-5.7-3.2L52,729.7z M49.3,750.6l5.3,3l3.1,18.1l-3.9-2.8L49.3,750.6z M55.3,772.3l3,2.1l3.1,12.2L55.3,772.3z M60.5,775.9l5.8,3.1
	l1.7,17.9l-2.7-2.5L60.5,775.9z M66,797.7l2.2,2.1l0.6,10.4L66,797.7z M68.3,780.2l5,3.2l1.1,18.5l-4.4-3.1L68.3,780.2z M70,825.4
	l0.9,6.4c0,0.1-0.1,0.1-0.1,0.2l-0.2,0.7l-2.3-2.5L70,825.4z M67.4,832.2l2.4,2.5l-4.8,16.5l-3.3-2.8L67.4,832.2z M64.4,853.2
	l-4.8,16.5l-3.8-3l5.3-16.4L64.4,853.2z M59.5,847.7l0.2,1l-5.1,16l-1-1.8L59.5,847.7z M52.8,865.6l0.9,1.7l-4.6,15.1l-0.4-1.2
	L52.8,865.6z M49.6,887.4l2.9,2.8l-6.1,16l-1.5-2.4L49.6,887.4z M44.4,906.4l1.3,2l-5.2,13.7L44.4,906.4z M33,949.7l8.2-16.3
	l0.8,2.1l-9,14.7L33,949.7z M43,937.6l1.2,2.4l-10.7,16.3l-0.7-2.1L43,937.6z M40.2,955.3l0.7,2.4l-11.2,17.1l-1.2-2.6L40.2,955.3z
	 M31.6,956.8l0.5,1.7l-0.9,2.2l-3.5,5.1L31.6,956.8z M27.2,974.1l1.2,2.7l-10.9,17l-1.4-2.8L27.2,974.1z"/>
</svg>
