<?xml version="1.0" encoding="utf-8"?>
<!-- Generator: Adobe Illustrator 24.3.0, SVG Export Plug-In . SVG Version: 6.00 Build 0)  -->
<svg version="1.1" id="Layer_1" xmlns="http://www.w3.org/2000/svg" xmlns:xlink="http://www.w3.org/1999/xlink" x="0px" y="0px"
	 viewBox="0 0 109 49" style="enable-background:new 0 0 109 49;" xml:space="preserve">
<style type="text/css">
	.st0{fill:#CB3433;}
	.st1{fill:#FAFAFA;}
</style>
<path class="st0" d="M108.3,13l-5.2-2l-5.3,2L103,0.1 M103,0.1l5.3,12.9"/>
<circle class="st1" cx="103.1" cy="16.9" r="1.3"/>
<g>
	<path class="st1" d="M52.9,47.1H33.5c-0.4,0-0.6-0.3-0.6-0.6s0.3-0.6,0.6-0.6h19.4c0.4,0,0.6,0.3,0.6,0.6S53.3,47.1,52.9,47.1z
		 M16,47.1H1.3c-0.4,0-0.7-0.3-0.7-0.6s0.3-0.6,0.7-0.6H16c0.4,0,0.7,0.3,0.7,0.6S16.4,47.1,16,47.1z M64.2,43.3
		c-0.4,0-0.6-0.3-0.6-0.6v-8.4c0-0.2,0.1-0.3,0.2-0.5c0.1-0.1,0.3-0.2,0.5-0.2h11c0.4,0,0.6,0.3,0.6,0.6s-0.3,0.6-0.6,0.6H64.8v1.3
		c0,0,0,0,0,0c0,0,0,0,0,0v6.4C64.8,43,64.5,43.3,64.2,43.3z M101.1,34.8C101.1,34.8,101,34.8,101.1,34.8h-6.5
		c-0.4,0-0.6-0.3-0.6-0.6s0.3-0.6,0.6-0.6h7.8V23.2c0-0.4,0.3-0.6,0.6-0.6c0.4,0,0.6,0.3,0.6,0.6v11c0,0.2-0.1,0.3-0.2,0.5
		c-0.1,0.1-0.3,0.2-0.5,0.2H101.1C101.1,34.8,101.1,34.8,101.1,34.8z M103,17.4c-0.4,0-0.6-0.3-0.6-0.6s0.3-0.6,0.6-0.6
		c0.4,0,0.6,0.3,0.6,0.6S103.4,17.4,103,17.4z M14.9,52 M14.9,40.2"/>
	<circle class="st1" cx="23.6" cy="46.4" r="1.3"/>
	<circle class="st1" cx="61.1" cy="46.4" r="1.3"/>
	<circle class="st1" cx="84.9" cy="34.1" r="1.3"/>
	<path class="st1" d="M5.7,36v6l2.4,0.3v0.6H1.6v-0.6L3.4,42V28.1l-2-0.3v-0.6h6.8c2,0,3.4,0.3,4.4,1c0.9,0.7,1.4,1.7,1.4,3.2
		c0,1-0.3,2-0.9,2.7c-0.6,0.8-1.4,1.3-2.4,1.6L15,42l1.7,0.3v0.6h-3.8L8.5,36H5.7z M11.6,31.6c0-1.2-0.3-2-0.9-2.5
		c-0.6-0.5-1.6-0.8-3.1-0.8h-2V35h2.1c1.4,0,2.4-0.3,3-0.8C11.3,33.7,11.6,32.8,11.6,31.6z"/>
	<path class="st1" d="M19.8,37.4v0.2c0,1.1,0.1,1.9,0.4,2.5c0.2,0.6,0.6,1.1,1.1,1.4c0.5,0.3,1.1,0.5,2,0.5c0.4,0,0.9,0,1.5-0.1
		c0.6-0.1,1.1-0.1,1.4-0.2v0.7c-0.4,0.2-0.9,0.5-1.5,0.6c-0.6,0.2-1.3,0.3-2,0.3c-1.7,0-3-0.5-3.8-1.4c-0.8-0.9-1.2-2.4-1.2-4.4
		c0-1.9,0.4-3.4,1.2-4.3c0.8-0.9,2-1.4,3.4-1.4c2.8,0,4.2,1.6,4.2,4.8v1H19.8z M22.3,32.5c-0.8,0-1.4,0.3-1.9,1
		c-0.4,0.7-0.6,1.6-0.6,2.9h4.7c0-1.4-0.2-2.4-0.5-3C23.6,32.8,23.1,32.5,22.3,32.5z"/>
	<path class="st1" d="M32.8,31.7c1.2,0,2.1,0.2,2.7,0.7c0.6,0.5,0.8,1.2,0.8,2.3v7.4l1.4,0.3v0.5h-3l-0.2-1.1
		c-0.9,0.9-2,1.3-3.4,1.3c-1.9,0-2.8-1.1-2.8-3.3c0-0.7,0.1-1.3,0.4-1.8c0.3-0.5,0.7-0.8,1.4-1.1c0.6-0.3,1.5-0.4,2.7-0.4l1.7,0
		v-1.7c0-0.8-0.1-1.3-0.4-1.7c-0.3-0.4-0.7-0.5-1.3-0.5c-0.8,0-1.5,0.2-2.1,0.6l-0.4,1.4h-0.7v-2.4C30.8,31.8,31.9,31.7,32.8,31.7z
		 M34.4,37.3l-1.5,0c-1,0-1.8,0.2-2.1,0.6c-0.4,0.4-0.6,1-0.6,1.8c0,1.4,0.6,2.1,1.7,2.1c0.5,0,1-0.1,1.4-0.2
		c0.4-0.1,0.8-0.3,1.2-0.5V37.3z"/>
	<path class="st1" d="M47.9,42.2c-0.4,0.3-0.9,0.5-1.6,0.7c-0.7,0.2-1.4,0.2-2.1,0.2c-3.6,0-5.4-1.9-5.4-5.8c0-1.8,0.5-3.2,1.4-4.2
		c0.9-1,2.2-1.5,3.9-1.5c1.1,0,2.2,0.1,3.5,0.4V35H47l-0.5-1.9c-0.6-0.4-1.4-0.6-2.3-0.6c-2.1,0-3.1,1.6-3.1,4.8
		c0,1.7,0.3,2.8,1,3.5c0.6,0.7,1.6,1.1,3,1.1c1.1,0,2.1-0.1,3-0.4V42.2z"/>
	<path class="st1" d="M52.5,31c0,0.8,0,1.4-0.1,1.8c0.6-0.3,1.2-0.6,1.9-0.8c0.7-0.2,1.3-0.4,1.8-0.4c1,0,1.7,0.3,2.2,0.8
		c0.5,0.6,0.7,1.4,0.7,2.4v7.2l1.3,0.3v0.5h-4.7v-0.5l1.5-0.3V35c0-1.3-0.6-2-1.9-2c-0.7,0-1.6,0.1-2.6,0.3v8.8l1.5,0.3v0.5h-4.8
		v-0.5l1.4-0.3v-15l-1.6-0.3v-0.5h3.6V31z"/>
	<path class="st1" d="M62.3,22.3c0-5.3,2.6-8,7.7-8c2.5,0,4.4,0.7,5.7,2c1.3,1.4,1.9,3.3,1.9,6c0,2.7-0.7,4.7-2,6.1
		c-1.3,1.4-3.2,2.1-5.7,2.1c-2.5,0-4.4-0.7-5.7-2S62.3,25,62.3,22.3z M64.8,22.3c0,2.5,0.4,4.3,1.3,5.5c0.8,1.1,2.2,1.7,4,1.7
		c1.8,0,3.1-0.6,4-1.7c0.9-1.1,1.3-3,1.3-5.5c0-2.5-0.4-4.3-1.3-5.4c-0.8-1.1-2.2-1.7-4-1.7c-1.8,0-3.1,0.6-4,1.7
		C65.2,18,64.8,19.8,64.8,22.3z"/>
	<path class="st1" d="M82.3,27c0,1.3,0.6,2,1.9,2c1,0,1.9-0.1,2.7-0.4V20l-1.7-0.3v-0.5h3.6v10.2l1.4,0.3v0.5H87L87,29.3
		c-0.6,0.3-1.2,0.6-1.9,0.8c-0.7,0.2-1.3,0.3-1.8,0.3c-1.9,0-2.8-1.1-2.8-3.2V20L79,19.7v-0.5h3.4V27z"/>
	<path class="st1" d="M94.6,30.4c-0.7,0-1.3-0.2-1.7-0.7c-0.4-0.4-0.6-1.1-0.6-1.9v-7.7h-1.4v-0.5l1.5-0.5l1.2-2.5h0.7v2.5h2.5v1
		h-2.5v7.5c0,0.5,0.1,0.9,0.3,1.1c0.2,0.3,0.5,0.4,0.9,0.4c0.5,0,1-0.1,1.7-0.2v0.8c-0.3,0.2-0.7,0.3-1.2,0.5
		C95.5,30.3,95,30.4,94.6,30.4z"/>
</g>
</svg>
